<?xml version="1.0"?>
<svg xmlns="http://www.w3.org/2000/svg" height="25px" viewBox="0 0 60 54" width="25px"><g><g id="Page-1" fill="none" fill-rule="evenodd"><g id="020---Stadium" fill="rgb(0,0,0)" fill-rule="nonzero"><path id="Shape" d="m7.03 29.243 3 12c.1114591.4449311.5113206.7569879.97.757.0819433.0003256.1635963-.009755.243-.03.257441-.0642346.4788001-.2281489.6153407-.4556541.1365407-.2275053.177068-.4999484.1126593-.7573459l-3-12c-.13733456-.5320593-.67824425-.8536288-1.21127079-.7200974-.53302653.1335314-.85845062.6721308-.72872921 1.2060974z" data-original="#000000" class="active-path" data-old_color="#000000" fill="#F788EE"/><path id="Shape" d="m59.394 8.919c.367503-.15766138.6057425-.5191056.6057425-.919s-.2382395-.76133862-.6057425-.919l-7-3c-.3089489-.13243879-.6637672-.10079892-.9444083.08421478-.280641.18501371-.4495546.49864617-.4495917.83478522v8.3c-2.9639069-.7148381-5.9698411-1.2425466-9-1.58v-3.061l6.394-2.74c.367503-.15766138.6057425-.5191056.6057425-.919s-.2382395-.76133862-.6057425-.919l-7-3c-.3089489-.13243879-.6637672-.10079892-.9444083.08421478-.280641.18501371-.4495546.49864617-.4495917.83478522v9.5c-3.082-.3-6.174-.466-9-.5v-3.341l6.394-2.74c.367503-.15766138.6057425-.5191056.6057425-.919s-.2382395-.76133862-.6057425-.919l-7-3c-.3089489-.13243879-.6637672-.10079892-.9444083.08421478-.280641.18501371-.4495546.49864617-.4495917.83478522v10.006c-2.826.032-5.918.2-9 .5v-2.847l6.394-2.74c.367503-.15766138.6057425-.5191056.6057425-.919s-.2382395-.76133862-.6057425-.919l-7-3c-.3089489-.13243879-.6637672-.10079892-.9444083.08421478-.280641.18501371-.4495546.49864617-.4495917.83478522v9.72c-3.0301589.3374534-6.0360931.8651619-9 1.58v-1.641l6.394-2.74c.367503-.15766138.6057425-.5191056.6057425-.919s-.2382395-.76133862-.6057425-.919l-7-3c-.30894891-.13243879-.66376723-.10079892-.94440826.08421478-.28064103.18501371-.44955462.49864617-.44959174.83478522v8.853c-4.167 1.271-7 2.978-7 5.147.00409171.2294623.03976002.4572684.106.677l.007.054c.00495775.0577705.01499658.1149919.03.171l5.662 21.754c-3.886 1.169-5.805 2.592-5.805 4.344 0 4.786 15.512 8 30 8s30-3.214 30-8c0-1.752-1.919-3.175-5.8-4.344l5.657-21.756c.0130587-.0516001.0224159-.1040669.028-.157l.009-.068c.066059-.2190884.1017253-.4462091.106-.675 0-2.169-2.833-3.876-7-5.147v-2.194zm-6.394-2.402 3.461 1.483-3.461 1.483zm-11-3 3.461 1.483-3.461 1.483zm-11-1 3.461 1.483-3.461 1.483zm-11 1 3.461 1.483-3.461 1.483zm-11 3 3.461 1.483-3.461 1.483zm1.6 14.029 3.144 1.969c-.7921816.178163-1.5721167.4069662-2.335.685-1.50660589-.3152039-2.99647346-.7056934-4.464-1.17 1.1656389-.6156541 2.39010385-1.1128103 3.655-1.484zm7.286-1.619 1.9 2.612c-1.113.122-2.173.262-3.158.419l-3.4-2.13c1.424-.343 2.997-.644 4.655-.901zm28.9.9-3.4 2.13c-.985-.157-2.045-.3-3.158-.419l1.9-2.612c1.647.258 3.22.559 4.654.902zm6.276 2.2c-1.4675265.4643066-2.9573941.8547961-4.464 1.17-.7628833-.2780338-1.5428184-.506837-2.335-.685l3.137-1.966c1.2659244.3710009 2.4914031.8681607 3.658 1.484zm-23.062.973c4.6158295-.0210548 9.2258189.3307558 13.785 1.052-4.5668568.6410463-9.1733816.9578389-13.785.948-4.6116184.0098389-9.2181432-.3069537-13.785-.948 4.5591811-.7212442 9.1691705-1.0730548 13.785-1.052zm7.908-1.68c-1.283-.105-2.614-.186-3.972-.239l.523-2.951c1.847.1 3.669.264 5.416.481zm-5.993-.3c-.636-.011-1.275-.02-1.915-.02s-1.279.009-1.915.021l-.529-2.978c.814-.026 1.629-.043 2.444-.043s1.63.017 2.444.043zm-6.374-2.89.523 2.951c-1.358.053-2.689.134-3.972.239l-1.967-2.709c1.747-.217 3.569-.377 5.416-.481zm4.459 8.87c9.132 0 21.565-1.45 27.116-4.507l-5.1 19.583c-.025637.0890842-.0387627.1813005-.039.274.000105.0559553.0047873.1118082.014.167-.257.947-4.315 2.681-10.994 3.692v-3.209c-.0055111-4.9682782-4.0317218-8.9944889-9-9h-2.997c-4.9682782.0055111-8.9944889 4.0317218-9 9v3.348c-7.277-.985-11.735-2.848-11.994-3.841.00925303-.0551867.01393559-.111043.014-.167.00003801-.10959-.01821266-.218418-.054-.322l-5.082-19.525c5.551 3.057 17.984 4.507 27.116 4.507zm5 19.841c-1.582.1-3.247.159-5 .159-1.39 0-2.717-.041-4-.106v-3.894c0-1.6568542 1.3431458-3 3-3h3c1.6568542 0 3 1.3431458 3 3zm-3-8.841h-3c-2.7600532.0033061-4.9966939 2.2399468-5 5v3.767c-.6846667-.052-1.3513333-.112-2-.18v-3.587c.0044086-3.8641657 3.1358343-6.9955914 7-7h3c3.8641657.0044086 6.9955914 3.1358343 7 7v3.481c-.646.077-1.314.146-2 .208v-3.689c-.0033061-2.7600532-2.2399468-4.9966939-5-5zm26 8c0 1.833-10.578 6-28 6s-28-4.167-28-6c0-.406.939-1.4 4.33-2.422 2.034 3.285 13.186 5.422 23.67 5.422s21.636-2.137 23.67-5.422c3.391 1.022 4.33 2.016 4.33 2.422zm-.019-27.119-.058.437c-.245.582-1.136 1.224-2.58 1.86-1.7515362-1.2390931-3.7152979-2.1467482-5.794-2.678-.03-.009-.057-.02-.086-.026-2.4750363-.7082808-4.9964989-1.2429137-7.546-1.6-.025-.007-.049-.007-.073-.012-3.9228424-.5652635-7.8806504-.8533107-11.844-.862-3.9637471.0088629-7.9219222.2975808-11.845.864-.024 0-.048 0-.071.011-2.5509373.3563979-5.0737779.8910396-7.55 1.6-.0260964.0061465-.0518077.0138265-.077.023-2.08080212.5315614-4.04659471 1.4398932-5.8 2.68-1.444-.636-2.335-1.278-2.58-1.86l-.058-.437c.291-1.767 7.011-4.181 16.96-5.281h.021c.024 0 .044-.012.068-.014 7.2670587-.7813319 14.5969413-.7813319 21.864 0 .024 0 .044.014.068.014h.021c9.949 1.1 16.669 3.514 16.96 5.281z" data-original="#000000" class="active-path" data-old_color="#000000" fill="#F788EE"/></g></g></g> </svg>
