<?xml version="1.0" encoding="UTF-8" standalone="no"?>
<!-- Created with Inkscape (http://www.inkscape.org/) -->

<svg
   xmlns:dc="http://purl.org/dc/elements/1.1/"
   xmlns:cc="http://creativecommons.org/ns#"
   xmlns:rdf="http://www.w3.org/1999/02/22-rdf-syntax-ns#"
   xmlns:svg="http://www.w3.org/2000/svg"
   xmlns="http://www.w3.org/2000/svg"
   xmlns:sodipodi="http://sodipodi.sourceforge.net/DTD/sodipodi-0.dtd"
   xmlns:inkscape="http://www.inkscape.org/namespaces/inkscape"
   width="100"
   height="100"
   viewBox="0 0 100 100"
   id="svg4318"
   version="1.1"
   inkscape:version="0.91 r13725"
   sodipodi:docname="demo_cat_c.svg">
  <defs
     id="defs4320">
    <pattern
       y="0"
       x="0"
       height="6"
       width="6"
       patternUnits="userSpaceOnUse"
       id="EMFhbasepattern" />
    <pattern
       y="0"
       x="0"
       height="6"
       width="6"
       patternUnits="userSpaceOnUse"
       id="EMFhbasepattern-6" />
  </defs>
  <sodipodi:namedview
     id="base"
     pagecolor="#ffffff"
     bordercolor="#666666"
     borderopacity="1.0"
     inkscape:pageopacity="0.0"
     inkscape:pageshadow="2"
     inkscape:zoom="4.2308824"
     inkscape:cx="-35.036495"
     inkscape:cy="48.571429"
     inkscape:document-units="px"
     inkscape:current-layer="layer1"
     showgrid="false"
     units="px"
     inkscape:window-width="1366"
     inkscape:window-height="706"
     inkscape:window-x="1272"
     inkscape:window-y="-8"
     inkscape:window-maximized="1" />
  <metadata
     id="metadata4323">
    <rdf:RDF>
      <cc:Work
         rdf:about="">
        <dc:format>image/svg+xml</dc:format>
        <dc:type
           rdf:resource="http://purl.org/dc/dcmitype/StillImage" />
        <dc:title />
      </cc:Work>
    </rdf:RDF>
  </metadata>
  <g
     inkscape:label="Calque 1"
     inkscape:groupmode="layer"
     id="layer1"
     transform="translate(0,-952.36216)">
    <path
       style="fill:#ec605f;fill-opacity:1"
       d="m 24.152558,1046.2099 c -0.17366,-0.1737 -0.38475,-0.5819 -0.46909,-0.9072 -0.17077,-0.6586 -0.35732,-5.7244 -0.36827,-9.9996 l -0.007,-2.7769 -2.15832,-1.2151 c -7.42858,-4.1823 -7.93905,-4.6164 -9.80469,-8.3379 l -0.92442,-1.844 0,-18.9557 0,-18.95567 0.67036,-1.4212 c 1.13638,-2.40918 2.21076,-3.78597 3.77143,-4.83298 4.14199,-2.77879 25.27599,-14.96929 30.68905,-17.70205 1.96726,-0.99317 2.61509,-1.13034 4.90778,-1.03921 1.79825,0.0715 2.50527,0.28226 4.8008,1.43133 3.95582,1.98015 25.35656,14.32974 29.84659,17.22337 1.35801,0.8752 2.17698,1.81508 3.51649,4.03575 l 0.81123,1.34486 0.10027,16.58768 c 0.10425,17.24462 0.0395,21.51822 -0.34817,22.96892 -0.37633,1.4083 -1.62716,3.4929 -2.71426,4.5234 -1.46015,1.3842 -23.88953,14.6706 -30.82044,18.2569 -2.72989,1.4126 -3.03429,1.4942 -5.50531,1.4754 -3.41678,-0.026 -4.00858,-0.2487 -10.07019,-3.7909 -1.89133,-1.1052 -3.48914,-2.0095 -3.5507,-2.0095 -0.0615,0 -2.0661,1.1209 -4.45456,2.4909 -4.96457,2.8477 -6.72912,3.7651 -7.24216,3.7651 -0.21868,0 -0.48483,-0.1242 -0.67632,-0.3157 z"
       id="path4311-0-72-1-5-7-2-6"
       inkscape:connector-curvature="0" />
    <circle
       style="color:#000000;clip-rule:nonzero;display:inline;overflow:visible;visibility:visible;opacity:1;isolation:auto;mix-blend-mode:normal;color-interpolation:sRGB;color-interpolation-filters:linearRGB;solid-color:#000000;solid-opacity:1;fill:#ffffff;fill-opacity:1;fill-rule:nonzero;stroke:none;stroke-width:4;stroke-linecap:butt;stroke-linejoin:round;stroke-miterlimit:4;stroke-dasharray:none;stroke-dashoffset:0;stroke-opacity:1;color-rendering:auto;image-rendering:auto;shape-rendering:auto;text-rendering:auto;enable-background:accumulate"
       id="path5881-2-1-9-1"
       cx="50.000046"
       cy="1002.3622"
       r="23.242163" />
    <g
       id="g5752-0-1-9"
       transform="matrix(0.57679574,0,0,0.57679574,-148.76711,505.55307)"
       style="fill:#ec605f;fill-opacity:1">
      <path
         sodipodi:nodetypes="sssssssss"
         inkscape:connector-curvature="0"
         id="path5731-8-9-9"
         d="m 347.44971,882.63169 c -1.19963,-0.55552 -3.4425,-2.02461 -4.98417,-3.26463 -4.47175,-3.59682 -10.53806,-3.93915 -14.50526,-0.81855 -2.43931,1.91876 -4.01789,1.80952 -4.5511,-0.31491 -0.64971,-2.58865 0.69641,-4.44959 4.5797,-6.33124 6.54616,-3.17195 10.9899,-2.23487 19.82436,4.18052 3.09244,2.24566 7.34129,2.07642 10.86511,-0.43276 2.80788,-1.99938 4.40288,-1.50475 4.40288,1.36537 0,4.83916 -9.74707,8.34116 -15.63152,5.6162 z"
         style="fill:#ec605f;fill-opacity:1" />
      <path
         sodipodi:nodetypes="ssssssss"
         inkscape:connector-curvature="0"
         id="path5705-8-9-3-8"
         d="m 327.9351,851.92018 c -2.57254,-1.80188 -2.76386,-6.07186 -0.36916,-8.23904 5.45128,-4.93334 12.85559,2.62842 7.66056,7.82345 -2.25245,2.25245 -4.48707,2.37982 -7.2914,0.41559 z m 23.2289,-0.41559 c -3.69167,-3.69167 -1.0958,-9.375 4.28205,-9.375 4.70909,0 6.88421,7.07653 3.00935,9.79059 -2.80433,1.96423 -5.03895,1.83686 -7.2914,-0.41559 z"
         style="fill:#ec605f;fill-opacity:1" />
    </g>
  </g>
</svg>
