<?xml version="1.0" encoding="UTF-8" standalone="no"?>
<!-- Created with Inkscape (http://www.inkscape.org/) -->

<svg
   xmlns:dc="http://purl.org/dc/elements/1.1/"
   xmlns:cc="http://creativecommons.org/ns#"
   xmlns:rdf="http://www.w3.org/1999/02/22-rdf-syntax-ns#"
   xmlns:svg="http://www.w3.org/2000/svg"
   xmlns="http://www.w3.org/2000/svg"
   xmlns:sodipodi="http://sodipodi.sourceforge.net/DTD/sodipodi-0.dtd"
   xmlns:inkscape="http://www.inkscape.org/namespaces/inkscape"
   width="100"
   height="100"
   viewBox="0 0 100 100"
   id="svg4318"
   version="1.1"
   inkscape:version="0.91 r13725"
   sodipodi:docname="demo_cat_a.svg">
  <defs
     id="defs4320">
    <pattern
       y="0"
       x="0"
       height="6"
       width="6"
       patternUnits="userSpaceOnUse"
       id="EMFhbasepattern" />
    <pattern
       y="0"
       x="0"
       height="6"
       width="6"
       patternUnits="userSpaceOnUse"
       id="EMFhbasepattern-6" />
  </defs>
  <sodipodi:namedview
     id="base"
     pagecolor="#ffffff"
     bordercolor="#666666"
     borderopacity="1.0"
     inkscape:pageopacity="0.0"
     inkscape:pageshadow="2"
     inkscape:zoom="5.9347873"
     inkscape:cx="48.689607"
     inkscape:cy="40.645982"
     inkscape:document-units="px"
     inkscape:current-layer="layer1"
     showgrid="false"
     units="px"
     inkscape:window-width="1280"
     inkscape:window-height="1002"
     inkscape:window-x="-8"
     inkscape:window-y="-8"
     inkscape:window-maximized="1"
     showguides="false" />
  <metadata
     id="metadata4323">
    <rdf:RDF>
      <cc:Work
         rdf:about="">
        <dc:format>image/svg+xml</dc:format>
        <dc:type
           rdf:resource="http://purl.org/dc/dcmitype/StillImage" />
        <dc:title></dc:title>
      </cc:Work>
    </rdf:RDF>
  </metadata>
  <g
     inkscape:label="Calque 1"
     inkscape:groupmode="layer"
     id="layer1"
     transform="translate(0,-952.36216)">
    <path
       style="fill:#ec605f;fill-opacity:1"
       d="m 24.15255,1046.2099 c -0.17367,-0.1737 -0.38476,-0.5819 -0.46909,-0.9071 -0.17076,-0.6586 -0.35732,-5.7244 -0.36826,-9.9997 l -0.007,-2.7768 -2.15834,-1.2152 c -7.42858,-4.1823 -7.93904,-4.6164 -9.80469,-8.3379 l -0.92441,-1.8439 0,-18.9557 0,-18.95574 0.67036,-1.4212 c 1.13638,-2.4092 2.21075,-3.786 3.77142,-4.833 4.14199,-2.7788 25.276004,-14.9693 30.689064,-17.702 1.96726,-0.99321 2.6151,-1.13038 4.90778,-1.03925 1.79825,0.0715 2.50527,0.28226 4.80081,1.43135 3.95582,1.9801 25.35656,14.3297 29.84659,17.2234 1.35801,0.8752 2.17698,1.815 3.51649,4.0357 l 0.81123,1.3449 0.10027,16.5877 c 0.10425,17.24454 0.0395,21.51814 -0.34817,22.96884 -0.37633,1.4083 -1.62716,3.4929 -2.71426,4.5234 -1.46015,1.3842 -23.88953,14.6706 -30.82044,18.257 -2.72989,1.4125 -3.03429,1.4941 -5.50532,1.4754 -3.41677,-0.026 -4.00857,-0.2487 -10.07018,-3.791 -1.89133,-1.1052 -3.48914,-2.0095 -3.5507,-2.0095 -0.0616,0 -2.0661,1.1209 -4.45456,2.491 -4.964574,2.8477 -6.729134,3.765 -7.242174,3.765 -0.21868,0 -0.48482,-0.1242 -0.67632,-0.3157 z"
       id="path4311-0-72-3-3-3-0"
       inkscape:connector-curvature="0" />
    <circle
       style="color:#000000;clip-rule:nonzero;display:inline;overflow:visible;visibility:visible;opacity:1;isolation:auto;mix-blend-mode:normal;color-interpolation:sRGB;color-interpolation-filters:linearRGB;solid-color:#000000;solid-opacity:1;fill:#ffffff;fill-opacity:1;fill-rule:nonzero;stroke:none;stroke-width:4;stroke-linecap:butt;stroke-linejoin:round;stroke-miterlimit:4;stroke-dasharray:none;stroke-dashoffset:0;stroke-opacity:1;color-rendering:auto;image-rendering:auto;shape-rendering:auto;text-rendering:auto;enable-background:accumulate"
       id="path5881-2-1-6-5-4-4-1"
       cx="49.999866"
       cy="1002.3621"
       r="23.242163" />
    <path
       style="fill:#ec605f;fill-opacity:1"
       d="m 44.395854,1018.8192 c -3.48941,-1.1143 -6.10867,-2.8182 -8.6406,-5.6207 -3.5811,-3.9639 -5.272694,-9.1963 -3.22685,-9.9813 1.1714,-0.4496 1.9449,0.4454 3.09459,3.5804 2.84222,7.7505 12.7808,11.6065 20.75333,8.052 3.59,-1.6006 7.30235,-5.6258 8.29778,-8.9971 0.83502,-2.828 1.57301,-3.6511 2.83824,-3.1656 1.34535,0.5163 1.06703,2.9187 -0.7622,6.5792 -3.05865,6.1209 -8.9316,9.8945 -15.90281,10.2181 -2.42627,0.1126 -4.7745,-0.1294 -6.45148,-0.665 z m -3.46157,-23.24114 c -1.48384,-1.0394 -1.59419,-3.5023 -0.21294,-4.7523 3.14428,-2.8455 7.41506,1.5161 4.41858,4.5126 -1.2992,1.2992 -2.58812,1.3726 -4.20564,0.2397 z m 13.39833,-0.2397 c -2.12935,-2.1294 -0.63205,-5.4075 2.46986,-5.4075 2.71619,0 3.97079,4.0817 1.73578,5.6472 -1.61752,1.1329 -2.90645,1.0595 -4.20564,-0.2397 z"
       id="path5705-5-5-2-1"
       inkscape:connector-curvature="0" />
  </g>
</svg>
