<?xml version="1.0" encoding="UTF-8" standalone="no"?>
<!-- Created with Inkscape (http://www.inkscape.org/) -->

<svg
   xmlns:dc="http://purl.org/dc/elements/1.1/"
   xmlns:cc="http://creativecommons.org/ns#"
   xmlns:rdf="http://www.w3.org/1999/02/22-rdf-syntax-ns#"
   xmlns:svg="http://www.w3.org/2000/svg"
   xmlns="http://www.w3.org/2000/svg"
   xmlns:sodipodi="http://sodipodi.sourceforge.net/DTD/sodipodi-0.dtd"
   xmlns:inkscape="http://www.inkscape.org/namespaces/inkscape"
   width="100"
   height="100"
   viewBox="0 0 100 100"
   id="svg4318"
   version="1.1"
   inkscape:version="0.91 r13725"
   sodipodi:docname="econ_cat_b.svg">
  <defs
     id="defs4320">
    <pattern
       y="0"
       x="0"
       height="6"
       width="6"
       patternUnits="userSpaceOnUse"
       id="EMFhbasepattern" />
    <pattern
       y="0"
       x="0"
       height="6"
       width="6"
       patternUnits="userSpaceOnUse"
       id="EMFhbasepattern-6" />
  </defs>
  <sodipodi:namedview
     id="base"
     pagecolor="#ffffff"
     bordercolor="#666666"
     borderopacity="1.0"
     inkscape:pageopacity="0.0"
     inkscape:pageshadow="2"
     inkscape:zoom="4.2308824"
     inkscape:cx="11.053181"
     inkscape:cy="48.571429"
     inkscape:document-units="px"
     inkscape:current-layer="layer1"
     showgrid="false"
     units="px"
     inkscape:window-width="1366"
     inkscape:window-height="706"
     inkscape:window-x="1272"
     inkscape:window-y="-8"
     inkscape:window-maximized="1" />
  <metadata
     id="metadata4323">
    <rdf:RDF>
      <cc:Work
         rdf:about="">
        <dc:format>image/svg+xml</dc:format>
        <dc:type
           rdf:resource="http://purl.org/dc/dcmitype/StillImage" />
        <dc:title></dc:title>
      </cc:Work>
    </rdf:RDF>
  </metadata>
  <g
     inkscape:label="Calque 1"
     inkscape:groupmode="layer"
     id="layer1"
     transform="translate(0,-952.36216)">
    <g
       id="g4347"
       transform="translate(120.90719,-33.691331)">
      <path
         inkscape:connector-curvature="0"
         id="path4311-0-72-1-7-1-3-1"
         d="m -96.754631,1079.9012 c -0.17366,-0.1737 -0.38475,-0.5819 -0.46908,-0.9071 -0.17077,-0.6586 -0.35733,-5.7244 -0.36827,-9.9997 l -0.007,-2.7768 -2.15833,-1.2152 c -7.428589,-4.1823 -7.939059,-4.6164 -9.804699,-8.3379 l -0.92442,-1.8439 0,-18.9557 0,-18.9557 0.67036,-1.4212 c 1.13638,-2.4092 2.21076,-3.786 3.77143,-4.833 4.142,-2.7788 25.275999,-14.9693 30.689059,-17.70206 1.96726,-0.99317 2.6151,-1.13034 4.90779,-1.03921 1.79824,0.0715 2.50526,0.28226 4.80079,1.43133 3.95582,1.98015 25.35656,14.32974 29.84659,17.22334 1.35801,0.8752 2.17698,1.8151 3.51649,4.0358 l 0.81123,1.3448 0.10027,16.5877 c 0.10425,17.2446 0.0395,21.5182 -0.34817,22.9689 -0.37633,1.4083 -1.62716,3.4929 -2.71426,4.5234 -1.46015,1.3842 -23.88953,14.6706 -30.82044,18.257 -2.72988,1.4125 -3.03428,1.4941 -5.5053,1.4754 -3.41678,-0.026 -4.00858,-0.2487 -10.07019,-3.791 -1.89133,-1.1052 -3.48914,-2.0095 -3.5507,-2.0095 -0.0615,0 -2.0661,1.1209 -4.45456,2.491 -4.96457,2.8477 -6.72912,3.765 -7.24216,3.765 -0.21868,0 -0.48483,-0.1242 -0.67632,-0.3157 z"
         style="fill:#ffd460;fill-opacity:1" />
      <circle
         r="23.242163"
         cy="1036.0535"
         cx="-70.907188"
         id="path5881-2-1-6-2-9-5"
         style="color:#000000;clip-rule:nonzero;display:inline;overflow:visible;visibility:visible;opacity:1;isolation:auto;mix-blend-mode:normal;color-interpolation:sRGB;color-interpolation-filters:linearRGB;solid-color:#000000;solid-opacity:1;fill:#ffffff;fill-opacity:1;fill-rule:nonzero;stroke:none;stroke-width:4;stroke-linecap:butt;stroke-linejoin:round;stroke-miterlimit:4;stroke-dasharray:none;stroke-dashoffset:0;stroke-opacity:1;color-rendering:auto;image-rendering:auto;shape-rendering:auto;text-rendering:auto;enable-background:accumulate" />
      <path
         inkscape:connector-curvature="0"
         id="path5718-2-6-6-3"
         d="m -81.183511,1045.9419 c -0.7136,-0.7136 -0.71973,-0.7649 -0.20584,-1.7251 0.37718,-0.7048 0.90299,-0.7425 10.35044,-0.7425 9.44747,0 9.97327,0.038 10.35043,0.7425 0.5139,0.9602 0.50778,1.0115 -0.20584,1.7251 -0.90434,0.9043 -19.38485,0.9043 -20.28919,0 z m 2.46762,-14.2462 c -3.55032,-1.347 -2.64312,-6.2623 1.15584,-6.2623 1.13596,0 3.06649,2.022 3.06649,3.2118 0,1.8532 -2.54043,3.6887 -4.22233,3.0505 z m 13.1879,-0.1092 c -1.07985,-0.4467 -2.05627,-1.8737 -2.05627,-3.0053 0,-1.1293 1.96643,-3.1478 3.0665,-3.1478 1.89624,0 3.42782,1.4627 3.44673,3.2917 0.0209,2.027 -2.52395,3.6609 -4.45696,2.8614 z"
         style="fill:#ffd460;fill-opacity:1" />
      <path
         sodipodi:nodetypes="ssssss"
         inkscape:connector-curvature="0"
         id="path5718-9-7-4-6-0"
         d="m -81.051791,1045.4954 c -0.71361,-0.7136 -0.71973,-0.7649 -0.20584,-1.7252 0.37717,-0.7047 0.90298,-0.7424 10.35044,-0.7424 9.44747,0 9.97326,0.038 10.35042,0.7424 0.51391,0.9603 0.50778,1.0116 -0.20583,1.7252 -0.90434,0.9043 -19.38485,0.9043 -20.28919,0 z"
         style="fill:#ffd460;fill-opacity:1;stroke:#ffd460;stroke-width:1;stroke-opacity:1" />
    </g>
  </g>
</svg>
