<?xml version="1.0" encoding="UTF-8" standalone="no"?>
<!-- Created with Inkscape (http://www.inkscape.org/) -->

<svg
   xmlns:dc="http://purl.org/dc/elements/1.1/"
   xmlns:cc="http://creativecommons.org/ns#"
   xmlns:rdf="http://www.w3.org/1999/02/22-rdf-syntax-ns#"
   xmlns:svg="http://www.w3.org/2000/svg"
   xmlns="http://www.w3.org/2000/svg"
   xmlns:sodipodi="http://sodipodi.sourceforge.net/DTD/sodipodi-0.dtd"
   xmlns:inkscape="http://www.inkscape.org/namespaces/inkscape"
   width="100"
   height="100"
   viewBox="0 0 100 100"
   id="svg4318"
   version="1.1"
   inkscape:version="0.91 r13725"
   sodipodi:docname="envir_cat_a.svg">
  <defs
     id="defs4320">
    <pattern
       y="0"
       x="0"
       height="6"
       width="6"
       patternUnits="userSpaceOnUse"
       id="EMFhbasepattern" />
  </defs>
  <sodipodi:namedview
     id="base"
     pagecolor="#ffffff"
     bordercolor="#666666"
     borderopacity="1.0"
     inkscape:pageopacity="0.0"
     inkscape:pageshadow="2"
     inkscape:zoom="4.2308824"
     inkscape:cx="11.053181"
     inkscape:cy="48.571429"
     inkscape:document-units="px"
     inkscape:current-layer="layer1"
     showgrid="false"
     units="px"
     inkscape:window-width="1280"
     inkscape:window-height="1002"
     inkscape:window-x="-8"
     inkscape:window-y="-8"
     inkscape:window-maximized="1" />
  <metadata
     id="metadata4323">
    <rdf:RDF>
      <cc:Work
         rdf:about="">
        <dc:format>image/svg+xml</dc:format>
        <dc:type
           rdf:resource="http://purl.org/dc/dcmitype/StillImage" />
        <dc:title></dc:title>
      </cc:Work>
    </rdf:RDF>
  </metadata>
  <g
     inkscape:label="Calque 1"
     inkscape:groupmode="layer"
     id="layer1"
     transform="translate(0,-952.36216)">
    <g
       id="g4188"
       transform="translate(79.781022,16.652769)">
      <path
         inkscape:connector-curvature="0"
         id="path4311-0-72-3-3"
         d="m -55.628471,1029.5571 c -0.17367,-0.1737 -0.38476,-0.5819 -0.46909,-0.9072 -0.17076,-0.6586 -0.35732,-5.7244 -0.36826,-9.9996 l -0.007,-2.7769 -2.15834,-1.2151 c -7.42858,-4.1823 -7.93904,-4.6164 -9.80469,-8.3379 l -0.92441,-1.844 0,-18.95565 0,-18.95568 0.67036,-1.4212 c 1.13638,-2.40918 2.21075,-3.78597 3.77142,-4.83298 4.14199,-2.77879 25.276,-14.96929 30.68906,-17.70205 1.96726,-0.99317 2.6151,-1.13034 4.907785,-1.03921 1.79825,0.0715 2.50527,0.28226 4.80081,1.43133 3.95582,1.98015 25.35656007,14.32974 29.8465901,17.22337 1.35801,0.8752 2.17698,1.81508 3.51649,4.03575 l 0.81123,1.34486 0.10027,16.58769 c 0.10425,17.24459 0.0395,21.51817 -0.34817,22.96887 -0.37633,1.4083 -1.62716,3.4929 -2.71426,4.5234 -1.46015,1.3842 -23.8895301,14.6706 -30.8204401,18.2569 -2.72989,1.4126 -3.03429,1.4942 -5.50532,1.4754 -3.416775,-0.026 -4.008575,-0.2487 -10.070185,-3.7909 -1.89133,-1.1052 -3.48914,-2.0095 -3.5507,-2.0095 -0.0616,0 -2.0661,1.1209 -4.45456,2.4909 -4.96457,2.8477 -6.72913,3.7651 -7.24217,3.7651 -0.21868,0 -0.48482,-0.1242 -0.67632,-0.3157 z"
         style="fill:#a1b870;fill-opacity:1" />
      <circle
         r="23.242163"
         cy="985.70941"
         cx="-29.781155"
         id="path5881-2-1-6-5-4"
         style="color:#000000;clip-rule:nonzero;display:inline;overflow:visible;visibility:visible;opacity:1;isolation:auto;mix-blend-mode:normal;color-interpolation:sRGB;color-interpolation-filters:linearRGB;solid-color:#000000;solid-opacity:1;fill:#ffffff;fill-opacity:1;fill-rule:nonzero;stroke:none;stroke-width:4;stroke-linecap:butt;stroke-linejoin:round;stroke-miterlimit:4;stroke-dasharray:none;stroke-dashoffset:0;stroke-opacity:1;color-rendering:auto;image-rendering:auto;shape-rendering:auto;text-rendering:auto;enable-background:accumulate" />
      <path
         inkscape:connector-curvature="0"
         id="path5705-5-5"
         d="m -35.385171,1002.1664 c -3.48941,-1.1144 -6.10867,-2.81818 -8.6406,-5.62068 -3.5811,-3.9639 -5.27269,-9.19634 -3.22685,-9.98139 1.1714,-0.44952 1.9449,0.44544 3.09459,3.58049 2.84222,7.7505 12.7808,11.60648 20.753335,8.052 3.59,-1.6006 7.30235,-5.6258 8.29778,-8.9971 0.83502,-2.828 1.57301,-3.65112 2.83824,-3.1656 1.34535,0.51626 1.06703,2.91862 -0.7622,6.5792 -3.05865,6.1209 -8.9316,9.89448 -15.90281,10.21808 -2.426275,0.1126 -4.774505,-0.1295 -6.451485,-0.665 z m -3.46157,-23.24116 c -1.48384,-1.03932 -1.59419,-3.50223 -0.21294,-4.75225 3.14428,-2.84553 7.41506,1.51606 4.41858,4.51254 -1.2992,1.2992 -2.58812,1.37267 -4.20564,0.23971 z m 13.398335,-0.23971 c -2.12935,-2.12934 -0.63205,-5.40747 2.46986,-5.40747 2.71619,0 3.97079,4.08172 1.73578,5.64718 -1.61752,1.13296 -2.90645,1.05949 -4.20564,-0.23971 z"
         style="fill:#a1b870;fill-opacity:1" />
    </g>
  </g>
</svg>
