<?xml version="1.0" encoding="UTF-8" standalone="no"?>
<!-- Created with Inkscape (http://www.inkscape.org/) -->

<svg
   xmlns:dc="http://purl.org/dc/elements/1.1/"
   xmlns:cc="http://creativecommons.org/ns#"
   xmlns:rdf="http://www.w3.org/1999/02/22-rdf-syntax-ns#"
   xmlns:svg="http://www.w3.org/2000/svg"
   xmlns="http://www.w3.org/2000/svg"
   xmlns:sodipodi="http://sodipodi.sourceforge.net/DTD/sodipodi-0.dtd"
   xmlns:inkscape="http://www.inkscape.org/namespaces/inkscape"
   width="100"
   height="100"
   viewBox="0 0 100 100"
   id="svg4318"
   version="1.1"
   inkscape:version="0.91 r13725"
   sodipodi:docname="social_cat_b.svg">
  <defs
     id="defs4320" />
  <sodipodi:namedview
     id="base"
     pagecolor="#ffffff"
     bordercolor="#666666"
     borderopacity="1.0"
     inkscape:pageopacity="0.0"
     inkscape:pageshadow="2"
     inkscape:zoom="4.2308824"
     inkscape:cx="57.142857"
     inkscape:cy="48.571429"
     inkscape:document-units="px"
     inkscape:current-layer="layer1"
     showgrid="false"
     units="px"
     inkscape:window-width="1280"
     inkscape:window-height="1002"
     inkscape:window-x="-8"
     inkscape:window-y="-8"
     inkscape:window-maximized="1" />
  <metadata
     id="metadata4323">
    <rdf:RDF>
      <cc:Work
         rdf:about="">
        <dc:format>image/svg+xml</dc:format>
        <dc:type
           rdf:resource="http://purl.org/dc/dcmitype/StillImage" />
        <dc:title></dc:title>
      </cc:Work>
    </rdf:RDF>
  </metadata>
  <g
     inkscape:label="Calque 1"
     inkscape:groupmode="layer"
     id="layer1"
     transform="translate(0,-952.36216)">
    <g
       id="g4916"
       transform="translate(-6.2530409,-52.836303)">
      <path
         inkscape:connector-curvature="0"
         id="path4311-0-72-1-7"
         d="m 30.405594,1099.0462 c -0.17366,-0.1737 -0.38475,-0.5819 -0.46908,-0.9072 -0.17077,-0.6586 -0.35733,-5.7244 -0.36827,-9.9996 l -0.007,-2.7769 -2.15833,-1.2151 c -7.42858,-4.1823 -7.93905,-4.6164 -9.80469,-8.3379 l -0.92442,-1.844 0,-18.9557 0,-18.9557 0.67036,-1.4212 c 1.13638,-2.4092 2.21076,-3.786 3.77143,-4.833 4.14199,-2.7788 25.27599,-14.9693 30.68905,-17.702 1.96726,-0.9932 2.6151,-1.1304 4.90779,-1.0392 1.79824,0.071 2.50526,0.2822 4.8008,1.4313 3.95582,1.9802 25.35656,14.3297 29.84659,17.2234 1.35801,0.8752 2.17698,1.8151 3.51649,4.0357 l 0.81123,1.3449 0.10027,16.5877 c 0.10425,17.2446 0.0395,21.5182 -0.34817,22.9689 -0.37633,1.4083 -1.62716,3.4929 -2.71426,4.5234 -1.46015,1.3842 -23.88953,14.6706 -30.82044,18.2569 -2.72989,1.4126 -3.03429,1.4942 -5.50531,1.4754 -3.41678,-0.026 -4.00858,-0.2487 -10.07019,-3.7909 -1.89133,-1.1052 -3.48914,-2.0095 -3.5507,-2.0095 -0.0615,0 -2.0661,1.1209 -4.45456,2.4909 -4.96457,2.8477 -6.72912,3.7651 -7.24216,3.7651 -0.21868,0 -0.48483,-0.1242 -0.67632,-0.3157 z"
         style="fill:#3db39e;fill-opacity:1" />
      <circle
         r="23.242163"
         cy="1055.1985"
         cx="56.253044"
         id="path5881-2-1-6"
         style="color:#000000;clip-rule:nonzero;display:inline;overflow:visible;visibility:visible;opacity:1;isolation:auto;mix-blend-mode:normal;color-interpolation:sRGB;color-interpolation-filters:linearRGB;solid-color:#000000;solid-opacity:1;fill:#ffffff;fill-opacity:1;fill-rule:nonzero;stroke:none;stroke-width:4;stroke-linecap:butt;stroke-linejoin:round;stroke-miterlimit:4;stroke-dasharray:none;stroke-dashoffset:0;stroke-opacity:1;color-rendering:auto;image-rendering:auto;shape-rendering:auto;text-rendering:auto;enable-background:accumulate" />
      <path
         inkscape:connector-curvature="0"
         id="path5718-2"
         d="m 45.976724,1065.0869 c -0.71361,-0.7136 -0.71973,-0.7649 -0.20584,-1.7251 0.37717,-0.7048 0.90298,-0.7425 10.35044,-0.7425 9.44748,0 9.97328,0.038 10.35044,0.7425 0.5139,0.9602 0.50778,1.0115 -0.20584,1.7251 -0.90434,0.9043 -19.38486,0.9043 -20.2892,0 z m 2.46761,-14.2462 c -3.55032,-1.3471 -2.64311,-6.2624 1.15584,-6.2624 1.13597,0 3.0665,2.022 3.0665,3.2118 0,1.8533 -2.54044,3.6887 -4.22234,3.0506 z m 13.18792,-0.1093 c -1.07985,-0.4466 -2.05628,-1.8737 -2.05628,-3.0053 0,-1.1292 1.96644,-3.1478 3.06651,-3.1478 1.89624,0 3.42782,1.4627 3.44673,3.2918 0.0209,2.027 -2.52396,3.6608 -4.45696,2.8613 z"
         style="fill:#3db39e;fill-opacity:1" />
      <path
         sodipodi:nodetypes="ssssss"
         inkscape:connector-curvature="0"
         id="path5718-9-7"
         d="m 46.108434,1064.6404 c -0.71361,-0.7136 -0.71973,-0.7649 -0.20584,-1.7252 0.37717,-0.7047 0.90298,-0.7424 10.35044,-0.7424 9.44748,0 9.97328,0.038 10.35044,0.7424 0.5139,0.9603 0.50778,1.0116 -0.20584,1.7252 -0.90434,0.9043 -19.38486,0.9043 -20.2892,0 z"
         style="fill:#3db39e;fill-opacity:1;stroke:#3db39e;stroke-width:1;stroke-opacity:1" />
    </g>
  </g>
</svg>
