<?xml version="1.0" encoding="utf-8"?>
<!-- Generator: Adobe Illustrator 15.0.2, SVG Export Plug-In . SVG Version: 6.00 Build 0)  -->
<!DOCTYPE svg PUBLIC "-//W3C//DTD SVG 1.1//EN" "http://www.w3.org/Graphics/SVG/1.1/DTD/svg11.dtd">
<svg version="1.1" id="Calque_1" xmlns="http://www.w3.org/2000/svg" xmlns:xlink="http://www.w3.org/1999/xlink" x="0px" y="0px"
	 width="128px" height="128px" viewBox="0 0 128 128" enable-background="new 0 0 128 128" xml:space="preserve">
<path fill="#FFFFFF" stroke="#00286B" stroke-width="3.685" stroke-miterlimit="10" d="M33.652,6.152c-1.1,0.1-27.6,0.4-27.6,27.6v61.1
	c0,1.101,0.3,27.601,27.6,27.601h61.1c1.1,0,27.6-0.3,27.6-27.601v-61.1c-0.1-1.2-0.399-27.5-27.6-27.5L33.652,6.152L33.652,6.152z"
	/>
     <path display="none" fill="#FFFFFF" stroke="#464644" stroke-width="3.685" stroke-miterlimit="10" d="M29.4,1.9
	C28.3,2,1.8,2.3,1.8,29.5v61.1C1.8,91.7,2.1,118.2,29.4,118.2h61.1c1.1,0,27.6-0.3,27.6-27.601V29.5C118,28.3,117.7,2,90.5,2
	L29.4,1.9L29.4,1.9z"/>
<path fill="#00286B" d="M81.852,66.152c0,1.6-1.3,2.899-2.899,2.899c-1.601,0-2.9-1.3-2.9-2.899c0-1.601,1.3-2.9,2.9-2.9
	C80.552,63.252,81.852,64.552,81.852,66.152L81.852,66.152z"/>
<path fill="#00286B" d="M83.852,77.552c0,1.601-1.3,2.9-2.899,2.9c-1.601,0-2.9-1.3-2.9-2.9c0-1.6,1.3-2.899,2.9-2.899
	C82.552,74.552,83.852,75.852,83.852,77.552L83.852,77.552z"/>
<path fill="#00286B" d="M85.852,88.852c0,1.601-1.3,2.9-2.899,2.9c-1.601,0-2.9-1.3-2.9-2.9c0-1.6,1.3-2.899,2.9-2.899
	C84.552,85.952,85.852,87.252,85.852,88.852z"/>
<path fill="#00286B" d="M87.852,100.252c0,1.6-1.3,2.9-2.899,2.9c-1.601,0-2.9-1.301-2.9-2.9s1.3-2.9,2.9-2.9
	C86.552,97.352,87.852,98.652,87.852,100.252L87.852,100.252z"/>
<path fill="#00286B" d="M71.952,66.152c0,1.6-1.3,2.899-2.9,2.899c-1.6,0-2.899-1.3-2.899-2.899c0-1.601,1.3-2.9,2.899-2.9
	C70.652,63.152,71.952,64.552,71.952,66.152z"/>
<path fill="#00286B" d="M72.652,77.652c0,1.6-1.301,2.899-2.9,2.899s-2.899-1.3-2.899-2.899c0-1.601,1.3-2.9,2.899-2.9
	S72.652,76.052,72.652,77.652L72.652,77.652z"/>
<path fill="#00286B" d="M73.352,89.152c0,1.6-1.3,2.899-2.899,2.899c-1.601,0-2.9-1.3-2.9-2.899c0-1.601,1.3-2.9,2.9-2.9
	C72.052,86.252,73.352,87.552,73.352,89.152L73.352,89.152z"/>
<path fill="#00286B" d="M74.052,100.652c0,1.6-1.3,2.899-2.899,2.899c-1.601,0-2.9-1.3-2.9-2.899c0-1.601,1.3-2.9,2.9-2.9
	C72.752,97.752,74.052,99.052,74.052,100.652z"/>
<path fill="#00286B" d="M62.152,66.152c0,1.6-1.3,2.899-2.9,2.899s-2.9-1.3-2.9-2.899c0-1.601,1.3-2.9,2.9-2.9
	S62.152,64.552,62.152,66.152z"/>
<path fill="#00286B" d="M61.452,77.652c0,1.6-1.3,2.899-2.9,2.899c-1.6,0-2.9-1.3-2.9-2.899c0-1.601,1.3-2.9,2.9-2.9
	C60.152,74.752,61.452,76.052,61.452,77.652z"/>
<path fill="#00286B" d="M60.752,89.152c0,1.6-1.3,2.899-2.9,2.899s-2.9-1.3-2.9-2.899c0-1.601,1.3-2.9,2.9-2.9
	S60.752,87.552,60.752,89.152z"/>
<path fill="#00286B" d="M60.052,100.652c0,1.6-1.3,2.899-2.9,2.899s-2.9-1.3-2.9-2.899c0-1.601,1.3-2.9,2.9-2.9
	S60.052,99.052,60.052,100.652z"/>
<path fill="#00286B" d="M52.252,66.152c0,1.6-1.3,2.899-2.9,2.899s-2.9-1.3-2.9-2.899c0-1.601,1.3-2.9,2.9-2.9
	S52.252,64.552,52.252,66.152L52.252,66.152z"/>
<path fill="#00286B" d="M50.252,77.552c0,1.601-1.3,2.9-2.9,2.9s-2.9-1.3-2.9-2.9c0-1.6,1.3-2.899,2.9-2.899
	S50.252,75.852,50.252,77.552z"/>
<path fill="#00286B" d="M48.252,88.852c0,1.601-1.3,2.9-2.9,2.9s-2.9-1.3-2.9-2.9c0-1.6,1.3-2.899,2.9-2.899
	S48.252,87.252,48.252,88.852z"/>
<path fill="#00286B" d="M46.252,100.252c0,1.6-1.3,2.9-2.9,2.9s-2.9-1.301-2.9-2.9s1.3-2.9,2.9-2.9S46.252,98.652,46.252,100.252
	L46.252,100.252z"/>
<path fill="#00286B" d="M67.752,32.152v-24.1h-7.4v24.1c-11.3,1.6-20.4,10.1-22.7,21.1c-0.4,1.8,11.1,4,26.5,4
	c15.5,0,27-2.2,26.6-3.9C88.352,42.252,79.152,33.652,67.752,32.152L67.752,32.152z"/>
</svg>
