<?xml version="1.0" encoding="UTF-8" standalone="no"?>
<!-- Created with Inkscape (http://www.inkscape.org/) -->

<svg
   xmlns:dc="http://purl.org/dc/elements/1.1/"
   xmlns:cc="http://creativecommons.org/ns#"
   xmlns:rdf="http://www.w3.org/1999/02/22-rdf-syntax-ns#"
   xmlns:svg="http://www.w3.org/2000/svg"
   xmlns="http://www.w3.org/2000/svg"
   xmlns:sodipodi="http://sodipodi.sourceforge.net/DTD/sodipodi-0.dtd"
   xmlns:inkscape="http://www.inkscape.org/namespaces/inkscape"
   id="svg2"
   version="1.1"
   inkscape:version="0.91 r13725"
   xml:space="preserve"
   width="88.582626"
   height="88.582626"
   viewBox="0 0 88.582626 88.582626"
   sodipodi:docname="eaux_usees.svg"><metadata
     id="metadata8"><rdf:RDF><cc:Work
         rdf:about=""><dc:format>image/svg+xml</dc:format><dc:type
           rdf:resource="http://purl.org/dc/dcmitype/StillImage" /><dc:title></dc:title></cc:Work></rdf:RDF></metadata><defs
     id="defs6"><clipPath
       clipPathUnits="userSpaceOnUse"
       id="clipPath16"><path
         d="m 0,70.866 70.866,0 L 70.866,0 0,0 0,70.866 Z"
         id="path18"
         inkscape:connector-curvature="0" /></clipPath></defs><sodipodi:namedview
     pagecolor="#ffffff"
     bordercolor="#666666"
     borderopacity="1"
     objecttolerance="10"
     gridtolerance="10"
     guidetolerance="10"
     inkscape:pageopacity="0"
     inkscape:pageshadow="2"
     inkscape:window-width="1600"
     inkscape:window-height="878"
     id="namedview4"
     showgrid="false"
     inkscape:zoom="2.6641793"
     inkscape:cx="-1.5014004"
     inkscape:cy="43.915963"
     inkscape:window-x="1272"
     inkscape:window-y="-8"
     inkscape:window-maximized="1"
     inkscape:current-layer="g10" /><g
     id="g10"
     inkscape:groupmode="layer"
     inkscape:label="PICTO_vidange_20"
     transform="matrix(1.25,0,0,-1.25,0,88.582625)"><g
       id="g12"><g
         id="g14"
         clip-path="url(#clipPath16)"><g
           id="g20"
           transform="translate(54.8042,70.8562)"><path
             d="M 0,0 -38.734,0 C -47.607,0 -54.8,-7.193 -54.8,-16.065 l 0,-38.734 c 0,-8.874 7.193,-16.066 16.066,-16.066 l 38.735,0 c 8.872,0 16.065,7.192 16.065,16.066 l 0,38.734 C 16.066,-7.193 8.873,0 0,0"
             style="fill:#1d1d1d;fill-opacity:1;fill-rule:nonzero;stroke:none"
             id="path22"
             inkscape:connector-curvature="0" /></g><g
           id="g24"
           transform="translate(63.5127,39.9177)"><path
             d="m 0,0 -14.296,0 c -0.004,0 -0.007,0.003 -0.008,0.008 l -0.888,10.284 c 0,0.004 -0.003,0.007 -0.007,0.007 l -12.401,0 c -0.405,0 -1.131,-0.118 -1.506,-0.734 L -31.382,6.187 C -31.665,5.762 -32.377,5.25 -32.886,5.221 l -9.91,-0.536 c -0.467,0 -0.781,-0.288 -0.909,-0.456 L -46.49,0.65 C -46.777,0.276 -47.314,0 -47.785,0 l -6.991,0 c -0.933,0 -1.75,-0.719 -1.775,-1.651 -0.024,-0.958 0.745,-1.743 1.697,-1.743 l 54.933,0 c 0.952,0 1.721,0.785 1.696,1.743 C 1.751,-0.719 0.933,0 0,0 m -39.266,1.634 c 0,-0.53 -0.432,-0.962 -0.961,-0.962 l -1.611,0 c -0.529,0 -0.962,0.432 -0.962,0.962 l 0,0.092 c 0,0.529 0.433,0.961 0.962,0.961 l 1.611,0 c 0.529,0 0.961,-0.432 0.961,-0.961 l 0,-0.092 z m 5.515,0 c 0,-0.53 -0.432,-0.962 -0.961,-0.962 l -1.612,0 c -0.528,0 -0.961,0.432 -0.961,0.962 l 0,0.092 c 0,0.529 0.433,0.961 0.961,0.961 l 1.612,0 c 0.529,0 0.961,-0.432 0.961,-0.961 l 0,-0.092 z m 10.146,2.51 c 0,-0.529 -0.433,-0.962 -0.962,-0.962 l -2.955,0 c -0.529,0 -0.961,0.433 -0.961,0.962 l 0,3.13 c 0,0.53 0.432,0.962 0.961,0.962 l 2.955,0 c 0.529,0 0.962,-0.432 0.962,-0.962 l 0,-3.13 z m 6.61,-3.182 C -16.995,0.434 -17.427,0 -17.957,0 l -2.813,0 c -0.529,0 -0.961,0.434 -0.961,0.962 l 0,6.454 c 0,0.529 0.432,0.962 0.961,0.962 l 2.813,0 c 0.53,0 0.962,-0.433 0.962,-0.962 l 0,-6.454 z"
             style="fill:#ffffff;fill-opacity:1;fill-rule:nonzero;stroke:none"
             id="path26"
             inkscape:connector-curvature="0" /></g><g
           id="g28"
           transform="translate(11.6128,34.0554)"><path
             d="m 0,0 c 2.486,-2.164 5.021,-4.273 7.449,-6.502 0.875,-0.802 1.625,-1.085 2.896,-1.054 0.928,0.022 2.95,0.015 2.95,0.015 l 0.413,0 0,-12.611 c 0,-1.985 1.615,-3.6 3.599,-3.6 l 17.619,0 c 1.984,0 3.598,1.615 3.598,3.6 l 0,12.607 0.439,0 11.326,0 c 0.417,2.885 0.824,5.699 1.248,8.633 l -52.637,0 C -0.668,0.657 -0.352,0.308 0,0"
             style="fill:#ffffff;fill-opacity:1;fill-rule:nonzero;stroke:none"
             id="path30"
             inkscape:connector-curvature="0" /></g><g
           id="g32"
           transform="translate(33.7881,14.9499)"><path
             d="M 0,0 C 1.076,0 1.613,0.402 2.132,0.792 2.62,1.157 3.04,1.474 3.925,1.474 4.81,1.474 5.23,1.157 5.715,0.793 6.236,0.402 6.774,0 7.849,0 c 1.076,0 1.613,0.402 2.133,0.792 0.488,0.365 0.906,0.682 1.793,0.682 l 0,0.924 C 10.699,2.398 10.161,1.995 9.642,1.605 9.155,1.241 8.735,0.926 7.849,0.926 6.963,0.926 6.543,1.241 6.058,1.605 5.539,1.995 5.001,2.398 3.925,2.398 2.848,2.398 2.312,1.995 1.792,1.605 1.305,1.241 0.885,0.926 0,0.926 c -0.887,0 -1.305,0.315 -1.792,0.679 -0.514,0.386 -1.048,0.784 -2.102,0.792 l 0,-0.926 C -3.031,1.464 -2.615,1.154 -2.136,0.795 -1.613,0.402 -1.075,0 0,0"
             style="fill:#2b2b2a;fill-opacity:1;fill-rule:nonzero;stroke:none"
             id="path34"
             inkscape:connector-curvature="0" /></g><g
           id="g36"
           transform="translate(33.7881,16.991)"><path
             d="M 0,0 C 1.076,0 1.613,0.402 2.132,0.792 2.62,1.157 3.04,1.473 3.925,1.473 4.81,1.473 5.23,1.157 5.715,0.793 6.236,0.402 6.774,0 7.849,0 c 1.076,0 1.613,0.402 2.133,0.792 0.488,0.365 0.906,0.681 1.793,0.681 l 0,0.925 C 10.699,2.398 10.161,1.995 9.642,1.605 9.155,1.241 8.735,0.925 7.849,0.925 6.963,0.925 6.543,1.241 6.058,1.605 5.539,1.995 5.001,2.398 3.925,2.398 2.848,2.398 2.312,1.995 1.792,1.605 1.305,1.241 0.885,0.925 0,0.925 c -0.887,0 -1.305,0.316 -1.792,0.68 -0.514,0.385 -1.048,0.784 -2.102,0.791 l 0,-0.925 C -3.031,1.464 -2.615,1.154 -2.136,0.795 -1.613,0.402 -1.075,0 0,0"
             style="fill:#2b2b2a;fill-opacity:1;fill-rule:nonzero;stroke:none"
             id="path38"
             inkscape:connector-curvature="0" /></g><g
           id="g40"
           transform="translate(33.7881,19.032)"><path
             d="M 0,0 C 1.076,0 1.613,0.402 2.132,0.792 2.62,1.157 3.04,1.473 3.925,1.473 4.81,1.473 5.23,1.157 5.715,0.793 6.236,0.402 6.774,0 7.849,0 c 1.076,0 1.613,0.402 2.133,0.792 0.488,0.365 0.906,0.681 1.793,0.681 l 0,0.924 C 10.699,2.397 10.161,1.995 9.642,1.605 9.155,1.24 8.735,0.925 7.849,0.925 6.963,0.925 6.543,1.24 6.058,1.604 5.539,1.995 5.001,2.397 3.925,2.397 2.848,2.397 2.312,1.995 1.792,1.604 1.305,1.24 0.885,0.925 0,0.925 -0.887,0.925 -1.305,1.24 -1.792,1.604 -2.306,1.99 -2.84,2.389 -3.894,2.396 l 0,-0.925 C -3.031,1.464 -2.615,1.154 -2.136,0.795 -1.613,0.402 -1.075,0 0,0"
             style="fill:#2b2b2a;fill-opacity:1;fill-rule:nonzero;stroke:none"
             id="path42"
             inkscape:connector-curvature="0" /></g><g
           id="g44"
           transform="translate(44.3682,30.3992)"><path
             d="m 0,0 -13.279,0 c 2.274,-2.278 4.487,-4.496 6.638,-6.651 C -4.481,-4.489 -2.27,-2.274 0,0"
             style="fill:#2b2b2a;fill-opacity:1;fill-rule:nonzero;stroke:none"
             id="path46"
             inkscape:connector-curvature="0" /></g><path
           d="m 46.237,14.203 -17.017,0 0,17.017 17.017,0 0,-17.017 z m 0.301,18.819 -17.619,0 c -0.827,0 -1.5,-0.674 -1.5,-1.501 l 0,-17.619 c 0,-0.827 0.673,-1.501 1.5,-1.501 l 17.619,0 c 0.828,0 1.501,0.674 1.501,1.501 l 0,17.619 c 0,0.827 -0.673,1.501 -1.501,1.501"
           style="fill:#2b2b2a;fill-opacity:1;fill-rule:nonzero;stroke:none"
           id="path48"
           inkscape:connector-curvature="0" /></g></g></g></svg>