<?xml version="1.0" encoding="utf-8"?>
<!-- Generator: Adobe Illustrator 15.0.2, SVG Export Plug-In . SVG Version: 6.00 Build 0)  -->
<!DOCTYPE svg PUBLIC "-//W3C//DTD SVG 1.1//EN" "http://www.w3.org/Graphics/SVG/1.1/DTD/svg11.dtd">
<svg version="1.1" id="Calque_1" xmlns="http://www.w3.org/2000/svg" xmlns:xlink="http://www.w3.org/1999/xlink" x="0px" y="0px"
	 width="128px" height="128px" viewBox="0 0 128 128" enable-background="new 0 0 128 128" xml:space="preserve">
<path fill="#FFFFFF" stroke="#FF6600" stroke-width="3.685" stroke-miterlimit="10" d="M33.651,5.443c-1.1,0.1-27.6,0.4-27.6,27.6
	v61.099c0,1.101,0.3,27.601,27.6,27.601h61.103c1.1,0,27.6-0.3,27.6-27.601V33.043c-0.1-1.2-0.399-27.5-27.6-27.5L33.651,5.443
	L33.651,5.443z"/>

     <path display="none" fill="#FFFFFF" stroke="#FF6600" stroke-width="3.685" stroke-miterlimit="10" d="M29.4,1.9
	C28.3,2,1.8,2.3,1.8,29.5v61.1C1.8,91.7,2.1,118.2,29.4,118.2h61.1c1.1,0,27.6-0.3,27.6-27.601V29.5C118,28.3,117.7,2,90.5,2
	L29.4,1.9L29.4,1.9z"/>
<path fill="#FF6600" d="M95.854,50.244c1.101,1.1,1.601,2.3,1.601,3.8s-0.5,2.8-1.601,3.9l-15.3,15.3l6.4,6.399l-6.8,6.9
	c-4.601,4.6-10.2,7.3-16.604,8c-6.5,0.7-12.3-0.8-17.6-4.3l-25,25c0,0-2.8-1.7-4.6-3.5c-1.5-1.5-3.2-4.2-3.2-4.2l25.1-25.1
	c-3.5-5.301-5-11.101-4.3-17.601c0.7-6.5,3.3-12,8-16.599l6.8-6.8l6.4,6.4l15.303-15.3c1.1-1.1,2.399-1.6,3.899-1.6
	s2.801,0.5,3.801,1.6c1.1,1.1,1.6,2.3,1.6,3.9c0,1.5-0.5,2.8-1.6,3.9l-15.303,15.2l10.002,10l15.301-15.299
	c1.1-1.1,2.399-1.6,3.899-1.6S94.854,49.244,95.854,50.244z"/>
</svg>
