<?xml version="1.0" encoding="utf-8"?>
<!-- Generator: Adobe Illustrator 15.0.2, SVG Export Plug-In . SVG Version: 6.00 Build 0)  -->
<!DOCTYPE svg PUBLIC "-//W3C//DTD SVG 1.1//EN" "http://www.w3.org/Graphics/SVG/1.1/DTD/svg11.dtd">
<svg version="1.1" id="Calque_1" xmlns="http://www.w3.org/2000/svg" xmlns:xlink="http://www.w3.org/1999/xlink" x="0px" y="0px"
	 width="128px" height="128px" viewBox="0 0 128 128" enable-background="new 0 0 128 128" xml:space="preserve">
<path fill="#FFFFFF" stroke="#336699" stroke-width="3.685" stroke-miterlimit="10" d="M32.943,5.443c-1.1,0.1-27.6,0.4-27.6,27.6
	v61.099c0,1.101,0.3,27.601,27.6,27.601h61.1c1.1-0.101,27.6-0.3,27.6-27.601V33.043c-0.1-1.2-0.399-27.5-27.6-27.5L32.943,5.443
	L32.943,5.443z"/>
     <ellipse fill="none" stroke="#336699" stroke-width="1.8583" cx="94.843" cy="89.143" rx="11.101" ry="3.9"/>
<ellipse fill="none" stroke="#336699" stroke-width="1.8583" cx="94.843" cy="107.843" rx="8.8" ry="3.1"/>
<line fill="none" stroke="#336699" stroke-width="1.8583" x1="83.743" y1="89.143" x2="85.943" y2="107.843"/>
<line fill="none" stroke="#336699" stroke-width="1.8583" x1="105.843" y1="89.143" x2="103.643" y2="107.843"/>
<path fill="#336699" d="M86.043,60.744c0,6.2-2.2,11.5-6.6,15.899c-4.4,4.4-9.7,6.601-15.9,6.601c-6.2,0-11.5-2.2-15.9-6.601
	c-4.4-4.399-6.6-9.699-6.6-15.899c0-4.3,1.2-8.3,3.6-12.1c0.2-0.3,1.1-1.6,2.7-4c1.7-2.4,3.1-4.6,4.4-6.6c1.3-2,2.8-4.6,4.4-7.8
	c1.6-3.2,2.8-6.1,3.6-8.9c0.3-0.9,1-5.4,3.7-5.4c2.7,0,3.5,4.5,3.7,5.4c0.8,2.7,1.999,5.7,3.6,8.9c1.6,3.2,3.1,5.8,4.399,7.8
	c1.301,2,2.801,4.2,4.4,6.6c1.7,2.4,2.6,3.7,2.7,4C84.843,52.443,86.043,56.443,86.043,60.744z"/>
</svg>
