<?xml version="1.0" encoding="utf-8"?>
<!-- Generator: Adobe Illustrator 15.0.2, SVG Export Plug-In . SVG Version: 6.00 Build 0)  -->
<!DOCTYPE svg PUBLIC "-//W3C//DTD SVG 1.1//EN" "http://www.w3.org/Graphics/SVG/1.1/DTD/svg11.dtd">
<svg version="1.1" id="Calque_1" xmlns="http://www.w3.org/2000/svg" xmlns:xlink="http://www.w3.org/1999/xlink" x="0px" y="0px"
	 width="128px" height="128px" viewBox="0 0 128 128" enable-background="new 0 0 128 128" xml:space="preserve">
<path fill="#FFFFFF" stroke="#906A83" stroke-width="3.685" stroke-miterlimit="10" d="M32.943,5.443c-1.1,0.1-27.6,0.4-27.6,27.6
	v61.099c0,1.101,0.3,27.601,27.6,27.601h61.1c1.1,0,27.6-0.3,27.6-27.601V33.043c-0.1-1.2-0.399-27.5-27.6-27.5L32.943,5.443
	L32.943,5.443z"/>

     <path display="none" fill="#FFFFFF" stroke="#906A83" stroke-width="3.685" stroke-miterlimit="10" d="M29.4,1.9
	C28.3,2,1.8,2.3,1.8,29.5v61.1C1.8,91.7,2.1,118.2,29.4,118.2h61.1c1.1,0,27.6-0.3,27.6-27.601V29.5C118,28.3,117.7,2,90.5,2
	L29.4,1.9L29.4,1.9z"/>
<path fill="#906A83" d="M44.644,35.043c3.9,0,7.1-3.2,7.1-7.1s-3.2-7.1-7.1-7.1s-7.1,3.2-7.1,7.1S40.744,35.043,44.644,35.043z"/>
<path fill="#906A83" d="M60.043,67.144c0,0-2.9-22.2-3.7-24c-1.7-3.5-4.4-5.7-11-5.7h-1.4c-6.6,0-9.3,2.2-11,5.7
	c-0.9,1.8-3.7,24-3.7,24c-0.1,1.3,0.8,2.499,2.1,2.6c0.1,0,0.2,0,0.3,0c1.2,0,2.2-0.9,2.4-2.1l2.9-19.3l0,0c0.1-0.1,0.2-0.2,0.3-0.2
	c0.2,0,0.3,0.2,0.3,0.4l-0.2,14.8l-2.1,37.799c0,0.101,0,0.301,0,0.4c0,1.9,1.6,3.5,3.5,3.5c1.9,0,3.5-1.5,3.5-3.5l0,0l1.8-29.3
	l0.1-0.9c0,0,0-0.6,0.6-0.6c0.6,0,0.6,0.6,0.6,0.6l0.1,0.9c0,0.1,1.8,29.3,1.8,29.3l0,0c0,1.9,1.6,3.5,3.5,3.5
	c1.9,0,3.5-1.5,3.5-3.5c0-0.1,0-0.3,0-0.4l-2.1-37.799l-0.4-14.8c0-0.2,0.1-0.3,0.3-0.4c0.1,0,0.3,0.1,0.3,0.2l0,0l2.9,19.3
	c0.1,1.199,1.2,2.1,2.4,2.1c0.1,0,0.2,0,0.3,0C59.244,69.643,60.244,68.443,60.043,67.144z"/>
<path fill="#906A83" d="M86.743,35.043c3.899,0,7.1-3.2,7.1-7.1s-3.2-7.1-7.1-7.1c-3.9,0-7.101,3.2-7.101,7.1
	S82.743,35.043,86.743,35.043z"/>
<path fill="#906A83" d="M98.343,43.144c-1.7-3.5-4.399-5.7-11-5.7h-1.399c-6.601,0-9.301,2.2-11,5.7c-0.9,1.8-5.9,24-5.9,24
	c-0.1,1.3,0.8,2.499,2.1,2.6c0.101,0,0.2,0,0.301,0c1.199,0,2.199-0.9,2.399-2.1l5.101-19.3l0,0c0.1-0.1,0.199-0.2,0.3-0.2
	c0.2,0,0.3,0.2,0.3,0.4l0.9,6.3l-6,25.299h7.3l1.399,21.4c0,2,1.601,3.5,3.5,3.5c1.9,0,3.5-1.6,3.5-3.5l1.4-21.5h7.3l-6-25.299
	l0.9-6.3c0-0.2,0.1-0.3,0.3-0.4c0.1,0,0.3,0.1,0.3,0.2l0,0l5,19.299c0.101,1.2,1.2,2.1,2.4,2.1c0.1,0,0.2,0,0.3,0
	c1.3-0.1,2.3-1.3,2.1-2.6C104.243,67.144,99.243,44.943,98.343,43.144z"/>
</svg>
