<?xml version="1.0"?>
<svg 
    xmlns="http://www.w3.org/2000/svg" 
    height="25px" 
    viewBox="-20 0 512 512" 
    width="25px" class="">
    <g>
        <path 
            d="m47.019531 299.308594c0 33.351562 27.132813 60.484375 60.480469 60.484375 18.40625 0 34.90625-8.273438 46.007812-21.285157l30.445313 14.699219c.082031.039063.167969.0625.25.101563.347656.164062.703125.308594 1.066406.445312.167969.0625.335938.125.503907.183594.339843.113281.691406.207031 1.042968.296875.1875.050781.375.105469.566406.148437.308594.066407.625.109376.941407.15625.230469.035157.457031.082032.6875.105469.207031.023438.425781.023438.636719.035157.316406.019531.628906.054687.945312.054687.039062 0 .074219-.003906.113281-.003906h22.113281c8.449219 0 15.300782-6.851563 15.300782-15.300781 0-8.449219-6.851563-15.300782-15.300782-15.300782h-18.714843l-27.261719-13.160156c.742188-3.773438 1.136719-7.667969 1.136719-11.65625 0-33.351562-27.132813-60.484375-60.480469-60.484375-33.351562 0-60.480469 27.132813-60.480469 60.480469zm60.480469-29.882813c15.59375 0 28.429688 12.007813 29.761719 27.261719l-23.109375-11.15625c-7.613282-3.675781-16.757813-.484375-20.429688 7.125s-.480468 16.757812 7.125 20.429688l23.105469 11.152343c-4.722656 3.128907-10.378906 4.953125-16.453125 4.953125-16.476562 0-29.882812-13.40625-29.882812-29.882812 0-16.476563 13.40625-29.882813 29.882812-29.882813zm0 0" 
            data-original="#000000" 
            class="active-path" 
            data-old_color="#000000" 
            fill="#F788EE"
        />
        <path 
            d="m422.570312 0h-38.410156c-6.980468 0-13.074218 4.722656-14.816406 11.480469l-50.828125 197.1875-189.652344-9.234375-20.390625-89.335938h59.160156c8.449219 0 15.296876-6.851562 15.296876-15.300781 0-33.632813-27.363282-61-61-61h-47.875c-33.632813 0-61 27.367187-61 61 0 8.449219 6.851562 15.300781 15.300781 15.300781h48.730469l20.125 88.175782c-24.632813.890624-47.75 10.59375-65.835938 27.824218-20.234375 19.269532-31.375 45.269532-31.375 73.210938s11.140625 53.941406 31.375 73.210937c18.285156 17.417969 41.703125 27.125 66.644531 27.832031l-21.703125 32.628907h-10.699218c-35.136719 0-63.722657 28.585937-63.722657 63.71875 0 8.449219 6.851563 15.300781 15.300781 15.300781h415.074219c8.449219 0 15.296875-6.851562 15.296875-15.300781 0-35.132813-28.582031-63.71875-63.71875-63.71875h-10.617187l-28.953125-44.285157 21.023437-1.023437c47.195313-2.300781 84.164063-41.113281 84.164063-88.363281s-36.96875-86.0625-84.164063-88.363282l-15.578125-.757812 46.292969-179.589844h26.554687c10.679688 0 19.367188 8.691406 19.367188 19.371094 0 8.449219 6.851562 15.300781 15.300781 15.300781s15.300781-6.851562 15.300781-15.300781c0-27.550781-22.417968-49.96875-49.96875-49.96875zm-348.515624 64.398438h47.875c11.191406 0 20.984374 6.074218 26.265624 15.101562h-100.402343c5.277343-9.027344 15.074219-15.101562 26.261719-15.101562zm339.164062 417.003906h-376.972656c5.535156-10.585938 16.621094-17.824219 29.371094-17.824219h318.234374c12.746094.003906 23.835938 7.238281 29.367188 17.824219zm-76.546875-48.421875h-223.605469l22.707032-34.128907 173.078124-8.429687zm82.195313-133.671875c0 30.910156-24.179688 56.296875-55.050782 57.800781l-259.277344 12.625c-19.460937.957031-37.953124-5.929687-52.0625-19.367187-14.109374-13.441407-21.878906-31.574219-21.878906-51.058594s7.769532-37.617188 21.878906-51.054688c13.253907-12.621094 30.363282-19.457031 48.519532-19.457031 1.175781 0 262.820312 12.714844 262.820312 12.714844 30.871094 1.503906 55.050782 26.890625 55.050782 57.796875zm0 0" 
            data-original="#000000" 
            class="active-path" 
            data-old_color="#000000" 
            fill="#F788EE"
        />
    </g> 
</svg>
