<svg height="512pt" viewBox="-2 0 512 512.0002" width="512pt" xmlns="http://www.w3.org/2000/svg"><path d="m390 215.664062v-167.308593c0-6.6875-4.429688-12.566407-10.855469-14.414063l-116-33.355468c-2.585937-.742188-5.324219-.777344-7.929687-.101563l-119.824219 31.246094-116.507813-31.21875c-4.503906-1.207031-9.316406-.25-13.015624 2.589843-3.699219 2.835938-5.867188 7.234376-5.867188 11.898438v371.332031c0 6.792969 4.566406 12.738281 11.132812 14.492188l120 32.023437c1.265626.339844 2.566407.507813 3.867188.507813 1.269531 0 2.535156-.160157 3.769531-.480469l77.109375-20.03125c20.875 57.761719 76.25 99.15625 141.121094 99.15625 82.710938 0 150-67.289062 150-150 0-71.375-50.113281-131.257812-117-146.335938zm-30-3.625c-.996094-.019531-1.996094-.039062-3-.039062-30.667969 0-59.214844 9.261719-83 25.121094v-202.199219l86 24.730469zm-330-177.488281 90.335938 24.203125v340.164063l-90.335938-24.109375zm120.335938 364.324219v-340.039062l93.664062-24.421876v229.050782c-23.027344 26.375-37 60.851562-37 98.535156 0 7.382812.546875 14.644531 1.582031 21.746094zm206.664062 83.125c-56.15625 0-103.417969-38.777344-116.4375-90.960938-.011719-.03125-.011719-.066406-.023438-.101562-.003906-.015625-.011718-.035156-.015624-.054688-2.296876-9.253906-3.523438-18.925781-3.523438-28.882812 0-66.167969 53.832031-120 120-120s120 53.832031 120 120-53.832031 120-120 120zm0 0"/><path d="m378.824219 362.609375c11.300781-20.515625 8.277343-46.875-9.097657-64.25-21.050781-21.054687-55.3125-21.054687-76.367187 0s-21.054687 55.3125 0 76.367187c10.527344 10.527344 24.355469 15.792969 38.1875 15.792969 8.992187 0 17.980469-2.242187 26.066406-6.695312l41.816407 41.816406c2.929687 2.929687 6.765624 4.394531 10.605468 4.394531s7.679688-1.464844 10.605469-4.394531c5.859375-5.855469 5.859375-15.355469 0-21.214844zm-64.253907-9.09375c-9.355468-9.355469-9.355468-24.585937 0-33.941406 4.683594-4.679688 10.828126-7.019531 16.972657-7.019531 6.148437 0 12.292969 2.339843 16.972656 7.019531 9.355469 9.355469 9.355469 24.585937 0 33.941406-9.359375 9.359375-24.585937 9.359375-33.945313 0zm0 0"/></svg>