<?xml version="1.0"?>
<svg xmlns="http://www.w3.org/2000/svg" height="25px" viewBox="0 0 512 512" width="25px"><g><path d="m357.269531 234.53125c16.027344 0 31.09375-6.238281 42.425781-17.574219 23.394532-23.390625 23.394532-61.457031 0-84.851562-11.332031-11.332031-26.398437-17.574219-42.425781-17.574219-16.027343 0-31.09375 6.242188-42.425781 17.574219-23.394531 23.394531-23.394531 61.457031 0 84.851562 11.332031 11.332031 26.398438 17.574219 42.425781 17.574219zm0 0" data-original="#000000" class="active-path" data-old_color="#000000" fill="#F788EE"/><path d="m497 452c-25.082031 0-38.441406 9.96875-49.175781 17.976562-9.355469 6.980469-16.113281 12.023438-31.234375 12.023438-15.109375 0-21.859375-5.042969-31.203125-12.019531-10.730469-8.011719-24.082031-17.980469-49.152344-17.980469-25.058594 0-38.402344 9.972656-49.125 17.984375-9.332031 6.972656-16.078125 12.015625-31.164063 12.015625-15.097656 0-21.847656-5.042969-31.1875-12.019531-10.726562-8.011719-24.074218-17.980469-49.140624-17.980469-25.0625 0-38.410157 9.972656-49.132813 17.980469-9.339844 6.976562-16.085937 12.019531-31.175781 12.019531-15.09375 0-21.839844-5.042969-31.175782-12.019531-10.726562-8.007813-24.070312-17.980469-49.132812-17.980469-8.285156 0-15 6.714844-15 15 0 8.28125 6.714844 15 15 15 15.09375 0 21.839844 5.039062 31.175781 12.015625 10.722657 8.011719 24.070313 17.984375 49.132813 17.984375s38.40625-9.972656 49.132812-17.984375c9.335938-6.976563 16.082032-12.015625 31.175782-12.015625 15.097656 0 21.847656 5.039062 31.1875 12.015625 10.726562 8.011719 24.074218 17.984375 49.140624 17.984375 25.058594 0 38.402344-9.972656 49.125-17.984375 9.332032-6.976563 16.078126-12.015625 31.164063-12.015625 15.105469 0 21.855469 5.039062 31.203125 12.019531 10.726562 8.011719 24.082031 17.980469 49.152344 17.980469 25.082031 0 38.441406-9.96875 49.175781-17.980469 9.351563-6.976562 16.109375-12.019531 31.234375-12.019531 8.285156 0 15-6.71875 15-15 0-8.285156-6.714844-15-15-15zm0 0" data-original="#000000" class="active-path" data-old_color="#000000" fill="#F788EE"/><path d="m497 362c-25.082031 0-38.441406 9.96875-49.175781 17.976562-9.355469 6.980469-16.113281 12.023438-31.234375 12.023438-15.109375 0-21.859375-5.042969-31.203125-12.019531-10.730469-8.011719-24.082031-17.980469-49.152344-17.980469-25.058594 0-38.402344 9.972656-49.125 17.984375-9.332031 6.972656-16.078125 12.015625-31.164063 12.015625-15.097656 0-21.847656-5.042969-31.1875-12.019531-10.726562-8.011719-24.074218-17.980469-49.140624-17.980469-25.0625 0-38.410157 9.972656-49.132813 17.980469-9.339844 6.976562-16.085937 12.019531-31.175781 12.019531-15.09375 0-21.839844-5.042969-31.175782-12.019531-10.726562-8.007813-24.070312-17.980469-49.132812-17.980469-8.285156 0-15 6.714844-15 15 0 8.28125 6.714844 15 15 15 15.09375 0 21.839844 5.039062 31.175781 12.015625 10.722657 8.011719 24.070313 17.984375 49.132813 17.984375s38.40625-9.972656 49.132812-17.984375c9.335938-6.976563 16.082032-12.015625 31.175782-12.015625 15.097656 0 21.847656 5.039062 31.1875 12.015625 10.726562 8.011719 24.074218 17.984375 49.140624 17.984375 25.058594 0 38.402344-9.972656 49.125-17.984375 9.332032-6.976563 16.078126-12.015625 31.164063-12.015625 15.105469 0 21.855469 5.039062 31.203125 12.019531 10.726562 8.011719 24.082031 17.980469 49.152344 17.980469 25.082031 0 38.441406-9.96875 49.175781-17.980469 9.351563-6.976562 16.109375-12.019531 31.234375-12.019531 8.285156 0 15-6.71875 15-15 0-8.285156-6.714844-15-15-15zm0 0" data-original="#000000" class="active-path" data-old_color="#000000" fill="#F788EE"/><path d="m175.617188 242c35.03125 0 55.101562 14.988281 67.09375 23.945312 8.027343 5.996094 8.152343 6.054688 13.234374 6.054688 5.066407 0 5.191407-.058594 13.207032-6.046875 7.644531-5.714844 18.585937-13.878906 34.589844-19.046875-3.546876-2.636719-6.929688-5.550781-10.109376-8.734375-18.808593-18.808594-27.53125-43.933594-26.179687-68.605469l-22.058594-22.058594c-9.746093-9.75-9.75-25.609374 0-35.355468l35.355469-35.355469c8.5-8.5 13.179688-19.800781 13.179688-31.820313 0-12.019531-4.679688-23.320312-13.179688-31.816406-17.546875-17.546875-46.09375-17.546875-63.640625 0l-35.351563 35.355469c-21.722656 21.71875-33.683593 50.597656-33.683593 81.3125 0 29.046875 10.695312 56.449219 30.222656 77.707031l-41.769531 41.769532c10.378906-4.210938 23.1875-7.304688 39.089844-7.304688zm0 0" data-original="#000000" class="active-path" data-old_color="#000000" fill="#F788EE"/><path d="m15 302c15.09375 0 21.839844 5.039062 31.175781 12.015625 10.722657 8.011719 24.070313 17.984375 49.132813 17.984375s38.40625-9.972656 49.132812-17.984375c9.335938-6.976563 16.082032-12.015625 31.175782-12.015625 15.097656 0 21.847656 5.039062 31.1875 12.015625 10.726562 8.011719 24.074218 17.984375 49.140624 17.984375 25.058594 0 38.402344-9.972656 49.125-17.984375 9.332032-6.976563 16.078126-12.015625 31.164063-12.015625 15.105469 0 21.855469 5.039062 31.203125 12.019531 10.726562 8.011719 24.082031 17.980469 49.152344 17.980469 25.082031 0 38.441406-9.96875 49.175781-17.980469 9.351563-6.976562 16.109375-12.019531 31.234375-12.019531 8.285156 0 15-6.71875 15-15 0-8.285156-6.714844-15-15-15-25.082031 0-38.441406 9.96875-49.175781 17.976562-9.355469 6.980469-16.113281 12.023438-31.234375 12.023438-15.109375 0-21.859375-5.042969-31.203125-12.019531-10.730469-8.011719-24.082031-17.980469-49.152344-17.980469-25.058594 0-38.402344 9.972656-49.125 17.984375-9.332031 6.972656-16.078125 12.015625-31.164063 12.015625-15.097656 0-21.847656-5.042969-31.1875-12.019531-10.726562-8.011719-24.074218-17.980469-49.140624-17.980469-25.0625 0-38.410157 9.972656-49.132813 17.980469-9.339844 6.976562-16.085937 12.019531-31.175781 12.019531-15.09375 0-21.839844-5.042969-31.175782-12.019531-10.726562-8.007813-24.070312-17.980469-49.132812-17.980469-8.285156 0-15 6.714844-15 15 0 8.28125 6.714844 15 15 15zm0 0" data-original="#000000" class="active-path" data-old_color="#000000" fill="#F788EE"/></g> </svg>
