<?xml version="1.0" encoding="UTF-8" standalone="no"?>
<svg
   xmlns:dc="http://purl.org/dc/elements/1.1/"
   xmlns:cc="http://creativecommons.org/ns#"
   xmlns:rdf="http://www.w3.org/1999/02/22-rdf-syntax-ns#"
   xmlns:svg="http://www.w3.org/2000/svg"
   xmlns="http://www.w3.org/2000/svg"
   xmlns:xlink="http://www.w3.org/1999/xlink"
   xmlns:sodipodi="http://sodipodi.sourceforge.net/DTD/sodipodi-0.dtd"
   xmlns:inkscape="http://www.inkscape.org/namespaces/inkscape"
   id="Calque_1"
   data-name="Calque 1"
   viewBox="0 0 32 32"
   version="1.1"
   sodipodi:docname="enveloppe.svg"
   inkscape:version="0.92.4 (5da689c313, 2019-01-14)">
  <metadata
     id="metadata16">
    <rdf:RDF>
      <cc:Work
         rdf:about="">
        <dc:format>image/svg+xml</dc:format>
        <dc:type
           rdf:resource="http://purl.org/dc/dcmitype/StillImage" />
      </cc:Work>
    </rdf:RDF>
  </metadata>
  <sodipodi:namedview
     pagecolor="#ffffff"
     bordercolor="#666666"
     borderopacity="1"
     objecttolerance="10"
     gridtolerance="10"
     guidetolerance="10"
     inkscape:pageopacity="0"
     inkscape:pageshadow="2"
     inkscape:window-width="1920"
     inkscape:window-height="1017"
     id="namedview14"
     showgrid="false"
     inkscape:zoom="7.375"
     inkscape:cx="16"
     inkscape:cy="16"
     inkscape:window-x="-8"
     inkscape:window-y="-8"
     inkscape:window-maximized="1"
     inkscape:current-layer="Calque_1" />
  <defs
     id="defs7">
    <symbol
       id="enveloppe"
       data-name="enveloppe"
       viewBox="0 0 14.269 9.28">
      <path
         d="M14.26855,3.27364v4.9993a.88224.88224,0,0,1-.37424.71153,1.40618,1.40618,0,0,1-.89979.29594H1.274a1.40618,1.40618,0,0,1-.8998-.29594A.88227.88227,0,0,1,0,8.27294V3.27364a4.10671,4.10671,0,0,0,.80408.5477q2.88218,1.54883,3.95736,2.1722.4539.26445.7366.4123a5.11413,5.11413,0,0,0,.75235.30229,2.80834,2.80834,0,0,0,.87571.1542h.016a2.81772,2.81772,0,0,0,.87572-.1542,5.08036,5.08036,0,0,0,.75235-.30229q.28269-.14808.7366-.4123,1.35371-.77452,3.96509-2.1722a4.26941,4.26941,0,0,0,.79635-.54769Z"
         id="path2" />
      <path
         d="M14.26855,1.00724a1.44189,1.44189,0,0,1-.39029.95082,3.4949,3.4949,0,0,1-.97143.77453Q9.91316,4.37592,9.18043,4.7788q-.07967.0442-.33827.19205t-.42983.23929q-.17122.09144-.41408.20474a2.74839,2.74839,0,0,1-.45777.17,1.56875,1.56875,0,0,1-.398.05665h-.016a1.56875,1.56875,0,0,1-.398-.05665,2.74839,2.74839,0,0,1-.45777-.17q-.24285-.1133-.41408-.20474t-.42983-.23929q-.2586-.14786-.33827-.19205-.72471-.40289-2.08614-1.149T1.37005,2.73259a3.68081,3.68081,0,0,1-.9316-.72728,1.31541,1.31541,0,0,1-.43786-.85938A1.10511,1.10511,0,0,1,.33114.32744,1.28373,1.28373,0,0,1,1.27463,0H12.99511a1.41,1.41,0,0,1,.89563.29594.87957.87957,0,0,1,.37811.71153Z"
         id="path4" />
    </symbol>
  </defs>
  <title
     id="title9">enveloppe</title>
  <use
     width="14.26885"
     height="9.2804098"
     transform="matrix(2.102504,0,0,2.0466351,1.0236671,6.6703)"
     xlink:href="#enveloppe"
     id="use11"
     x="0"
     y="0" />
</svg>
