<?xml version="1.0" encoding="UTF-8" standalone="no"?>
<svg
   xmlns:dc="http://purl.org/dc/elements/1.1/"
   xmlns:cc="http://creativecommons.org/ns#"
   xmlns:rdf="http://www.w3.org/1999/02/22-rdf-syntax-ns#"
   xmlns:svg="http://www.w3.org/2000/svg"
   xmlns="http://www.w3.org/2000/svg"
   width="13.999996mm"
   height="20mm"
   viewBox="0 0 13.999996 20"
   version="1.1"
   id="svg8">
  <defs
     id="defs2" />
  <metadata
     id="metadata5">
    <rdf:RDF>
      <cc:Work
         rdf:about="">
        <dc:format>image/svg+xml</dc:format>
        <dc:type
           rdf:resource="http://purl.org/dc/dcmitype/StillImage" />
        <dc:title></dc:title>
      </cc:Work>
    </rdf:RDF>
  </metadata>
  <g
     id="layer1"
     transform="translate(-107.13849,-78.57592)">
    <path
       style="fill:#000000;stroke-width:0.0875961"
       d="m 111.13344,98.401312 -0.22762,-1.005068 -0.0294,-0.830457 h -0.89672 l -1.08336,-0.142236 -0.18665,-0.142237 v -3.23492 -3.234924 l -0.35546,-0.104142 -1.15492,-1.26852 0.7591,-2.18238 2.93678,-1.754593 2.61775,-1.568709 0.11163,-0.483963 0.63435,-0.982793 0.57852,-0.913698 -0.53523,-0.627815 -0.72756,0.225938 -0.16186,0.479653 -0.57184,0.493853 -0.48632,-0.833354 0.94551,-1.245159 1.9833,-0.01603 0.64839,1.513838 -0.76051,1.644308 -0.44453,0.760314 2.70983,1.566834 3.05497,1.815784 0.6469,1.619276 -1.36465,1.799569 -0.14696,4.254886 -0.16796,4.388617 -4.14762,0.182737 -4.17792,-0.174608 h 6e-5 m 7.38159,-5.470746 0.0218,-4.411862 -0.20694,-0.225151 -0.20693,-0.225152 h -3.08072 -3.08073 l 0.0529,0.479691 0.0537,4.660941 6.3e-4,4.181254 3.21218,-0.02393 3.21216,-0.02393 0.0219,-4.411861 m -7.62184,-0.339364 v -2.786777 h -0.54586 -0.54586 v 2.786777 2.78678 h 0.54586 0.54586 v -2.78678 m -0.0525,-4.047472 -0.51852,-0.475329 -0.47458,0.464164 0.9931,0.01115 v 1.5e-5 m -2.10272,-0.269747 0.73905,-1.09278 0.35395,-0.254923 4.23033,-0.02608 4.23033,-0.02608 0.42189,0.249825 0.82427,1.058636 0.152,0.342638 0.14441,-1.184056 -4.05352,-2.413444 -1.61252,-0.879619 -5.51003,3.154039 -0.23082,1.185481 0.31066,-0.11367 v 3.3e-5"
       id="path826" />
  </g>
</svg>
