<?xml version="1.0" encoding="UTF-8" standalone="no"?>
<svg
   xmlns:dc="http://purl.org/dc/elements/1.1/"
   xmlns:cc="http://creativecommons.org/ns#"
   xmlns:rdf="http://www.w3.org/1999/02/22-rdf-syntax-ns#"
   xmlns:svg="http://www.w3.org/2000/svg"
   xmlns="http://www.w3.org/2000/svg"
   xmlns:xlink="http://www.w3.org/1999/xlink"
   xmlns:sodipodi="http://sodipodi.sourceforge.net/DTD/sodipodi-0.dtd"
   xmlns:inkscape="http://www.inkscape.org/namespaces/inkscape"
   id="Calque_1"
   data-name="Calque 1"
   viewBox="0 0 32 32"
   version="1.1"
   sodipodi:docname="telephone_02.svg"
   inkscape:version="0.92.4 (5da689c313, 2019-01-14)">
  <metadata
     id="metadata16">
    <rdf:RDF>
      <cc:Work
         rdf:about="">
        <dc:format>image/svg+xml</dc:format>
        <dc:type
           rdf:resource="http://purl.org/dc/dcmitype/StillImage" />
      </cc:Work>
    </rdf:RDF>
  </metadata>
  <sodipodi:namedview
     pagecolor="#ffffff"
     bordercolor="#666666"
     borderopacity="1"
     objecttolerance="10"
     gridtolerance="10"
     guidetolerance="10"
     inkscape:pageopacity="0"
     inkscape:pageshadow="2"
     inkscape:window-width="1920"
     inkscape:window-height="1017"
     id="namedview14"
     showgrid="false"
     inkscape:zoom="7.375"
     inkscape:cx="16"
     inkscape:cy="16"
     inkscape:window-x="-8"
     inkscape:window-y="-8"
     inkscape:window-maximized="1"
     inkscape:current-layer="Calque_1" />
  <defs
     id="defs7">
    <symbol
       id="telephone_02"
       data-name="telephone_02"
       viewBox="0 0 17.467 14.092">
      <path
         d="M.86187,6.8763a.63527.63527,0,0,0,.1754.13605,1.58753,1.58753,0,0,0,.66139-.08807q.55462-.13665,1.34279-.38064l.798-.23419q.07771-.01968.31126-.05873a2.116,2.116,0,0,0,.38936-.09766.70021.70021,0,0,0,.25317-.156,1.07364,1.07364,0,0,0,.141-.77372q-.034-.59852-.08226-1.19157t.10726-.74936a.67069.67069,0,0,1,.1947-.12655,2.23692,2.23692,0,0,1,.21393-.08771q.08754-.02949.25752-.07321t.219-.05357A10.50456,10.50456,0,0,1,8.7337,2.51077a10.4959,10.4959,0,0,1,2.88915.42584q.04866.00939.219.05321t.2575.07279a2.15925,2.15925,0,0,1,.21391.08735.67237.67237,0,0,1,.19465.12623.76974.76974,0,0,1,.12631.52508,5.3685,5.3685,0,0,1-.06333.81215,4.68552,4.68552,0,0,0-.05351.822.81839.81839,0,0,0,.15572.55447.69865.69865,0,0,0,.25312.1556,2.11292,2.11292,0,0,0,.38933.097q.23353.03867.31125.05821.08753.02935.4231.13077t.686.19883q.35046.09741.71981.20352a5.73665,5.73665,0,0,0,.63739.15021.79389.79389,0,0,0,.33559.01425.67266.67266,0,0,0,.17544-.13634,3.62929,3.62929,0,0,0,.76871-1.197,2.48438,2.48438,0,0,0-.14066-1.69745,4.35878,4.35878,0,0,0-.9386-1.59983,3.40074,3.40074,0,0,0-.35516-.30624q-.19936-.15057-.34536-.24778a4.51391,4.51391,0,0,0-.40856-.2332q-.26256-.136-.38423-.18927t-.4427-.199q-.321-.14574-.39912-.18454A12.31819,12.31819,0,0,0,8.73446,0,12.33159,12.33159,0,0,0,3.51011,1.01616q-.07809.03893-.39918.18519t-.44277.19976q-.12168.05349-.38429.1899a4.52941,4.52941,0,0,0-.40863.23387q-.146.09745-.34543.24835a3.412,3.412,0,0,0-.35526.30682,4.37241,4.37241,0,0,0-.9391,1.60137A2.48264,2.48264,0,0,0,.09426,5.67911,3.62224,3.62224,0,0,0,.8626,6.87484Z"
         id="path2" />
      <path
         d="M13.40359,7.39918C12.25157,7.077,11.309,6.20546,11.309,5.46244S10.14893,4.1115,8.73106,4.1115s-2.578.60793-2.578,1.35094S5.21052,7.077,4.05848,7.39918,1.96386,9.359,1.96386,11.03835,5.00908,14.09172,8.731,14.09172s6.76716-1.374,6.76716-3.05337S14.55561,7.72137,13.40359,7.39918ZM8.731,12.16209a2.07,2.07,0,1,1,2.07-2.07A2.07,2.07,0,0,1,8.731,12.16209Z"
         id="path4" />
    </symbol>
  </defs>
  <title
     id="title9">telephone_02</title>
  <use
     width="17.46714"
     height="14.09172"
     transform="matrix(1.7187522,0,0,1.631672,1.573058,4.9158954)"
     xlink:href="#telephone_02"
     id="use11"
     x="0"
     y="0" />
</svg>
