<?xml version="1.0" encoding="UTF-8" standalone="no"?>
<svg
   xmlns:dc="http://purl.org/dc/elements/1.1/"
   xmlns:cc="http://creativecommons.org/ns#"
   xmlns:rdf="http://www.w3.org/1999/02/22-rdf-syntax-ns#"
   xmlns:svg="http://www.w3.org/2000/svg"
   xmlns="http://www.w3.org/2000/svg"
   xmlns:sodipodi="http://sodipodi.sourceforge.net/DTD/sodipodi-0.dtd"
   xmlns:inkscape="http://www.inkscape.org/namespaces/inkscape"
   width="259.76233mm"
   height="201.60109mm"
   viewBox="0 0 259.76233 201.60109"
   version="1.1"
   id="svg8"
   inkscape:export-filename="C:\Users\22195\image.png"
   inkscape:export-xdpi="1088"
   inkscape:export-ydpi="1088"
   inkscape:version="1.0.1 (3bc2e813f5, 2020-09-07)"
   sodipodi:docname="dessin.svg">
  <defs
     id="defs2" />
  <sodipodi:namedview
     id="base"
     pagecolor="#ffffff"
     bordercolor="#666666"
     borderopacity="1.0"
     inkscape:pageopacity="0.0"
     inkscape:pageshadow="2"
     inkscape:zoom="0.35"
     inkscape:cx="319.8718"
     inkscape:cy="371.21334"
     inkscape:document-units="mm"
     inkscape:current-layer="layer1"
     inkscape:document-rotation="0"
     showgrid="false"
     fit-margin-top="0"
     fit-margin-left="0"
     fit-margin-right="0"
     fit-margin-bottom="0"
     inkscape:window-width="1540"
     inkscape:window-height="1040"
     inkscape:window-x="234"
     inkscape:window-y="0"
     inkscape:window-maximized="0" />
  <metadata
     id="metadata5">
    <rdf:RDF>
      <cc:Work
         rdf:about="">
        <dc:format>image/svg+xml</dc:format>
        <dc:type
           rdf:resource="http://purl.org/dc/dcmitype/StillImage" />
        <dc:title></dc:title>
      </cc:Work>
    </rdf:RDF>
  </metadata>
  <g
     inkscape:label="Calque 1"
     inkscape:groupmode="layer"
     id="layer1"
     transform="translate(-21.200586,-49.949803)">
    <path
       style="fill:#E3C213;stroke-width:0.264583"
       d="m 178.43773,251.2828 c -4.68992,-1.10103 -8.99664,-5.60725 -9.92971,-10.38969 -0.14536,-0.74502 -0.45422,-4.98599 -0.68636,-9.42438 -0.82405,-15.7555 -1.14639,-21.21203 -1.25977,-21.3254 -0.0631,-0.0632 -11.89006,0.60341 -26.28203,1.48125 -45.273255,2.76144 -59.995905,3.65833 -80.274515,4.89021 -10.8413,0.65858 -23.52146,1.43393 -28.17813,1.72299 -9.49306,0.58928 -10.80643,0.62735 -10.60879,0.30756 0.0759,-0.12287 1.54148,-0.29958 3.25676,-0.39268 2.8886,-0.1568 15.89696,-0.9463 79.054125,-4.79794 13.09687,-0.79871 32.68265,-1.99127 43.52396,-2.65012 10.8413,-0.65886 29.47458,-1.79326 41.40729,-2.52089 30.26959,-1.84577 63.04481,-3.84366 78.03187,-4.75662 6.97386,-0.42482 12.76085,-0.7223 12.85994,-0.66106 0.0991,0.0613 0.2649,1.99026 0.36846,4.28671 0.10358,2.29645 0.46453,9.17599 0.80211,15.28787 0.7067,12.7943 0.66871,13.49351 -0.90752,16.70069 -1.73318,3.52657 -4.95575,6.16891 -8.67507,7.11317 -1.58526,0.40246 -85.12076,5.44827 -89.33325,5.39602 -1.17831,-0.0146 -2.60452,-0.13508 -3.16937,-0.26769 z m 65.82126,-9.82605 c 1.14132,-1.78602 1.94376,-6.97694 2.26782,-14.67029 0.13224,-3.13961 0.35806,-5.82599 0.5018,-5.96974 0.1721,-0.17209 1.5843,0.70439 4.1347,2.5662 8.74851,6.38648 13.8474,9.02045 14.93202,7.71356 1.14935,-1.38488 -1.79981,-5.85919 -8.96088,-13.59496 -1.89975,-2.05221 -3.4541,-3.84491 -3.4541,-3.98378 0,-0.31422 1.55483,-0.67288 5.88183,-1.35682 7.41643,-1.17225 12.93295,-2.75656 14.55724,-4.18073 1.65928,-1.45485 -1.28335,-2.74814 -8.00365,-3.51761 -2.84082,-0.32528 -3.37058,-0.3108 -15.0448,0.41113 -3.43979,0.21272 -12.14775,0.74723 -19.35103,1.1878 -12.06237,0.73776 -13.33722,0.86142 -16.13959,1.56545 -5.43915,1.36647 -7.88656,2.59876 -7.25163,3.65126 0.92087,1.52652 6.43743,2.57638 15.63767,2.97602 2.9389,0.12765 5.46933,0.3099 5.62317,0.40498 0.39772,0.2458 0.0598,0.80079 -2.90535,4.77097 -4.89615,6.55578 -7.42433,10.95622 -7.49324,13.04236 -0.0525,1.58953 0.42522,1.89038 2.02912,1.27784 2.41621,-0.92276 6.52267,-4.1097 12.45823,-9.66858 1.73195,-1.62204 3.27976,-2.90565 3.43958,-2.85247 0.15982,0.0532 0.38335,0.74169 0.49673,1.53002 1.21224,8.42845 2.27472,13.42261 3.49392,16.42308 1.08933,2.68087 2.32199,3.57073 3.15044,2.27431 z m -126.21697,-33.2676 c -0.74926,-0.11221 -1.48444,-0.2795 -1.63372,-0.37176 -0.16275,-0.10059 -0.27688,-1.60283 -0.28507,-3.75216 -0.0125,-3.27471 0.0258,-3.57265 0.44309,-3.44826 1.80182,0.53717 3.11467,0.70585 4.95465,0.63661 l 2.11667,-0.0796 -0.0397,-1.85208 c -0.0848,-3.96216 -1.38742,-22.435 -1.59674,-22.64431 -0.12175,-0.12175 -2.1098,-0.0976 -4.41789,0.0536 -2.3081,0.15121 -4.28588,0.1763 -4.39507,0.0558 -0.1092,-0.12054 -0.27185,-1.6693 -0.36146,-3.44168 l -0.16292,-3.22251 1.38582,-0.14401 c 3.44409,-0.35789 15.51672,-1.01754 15.90384,-0.86899 0.32923,0.12634 0.43124,0.52642 0.43216,1.69503 7.9e-4,0.84131 0.35368,7.12559 0.78448,13.96507 0.85196,13.52587 0.82346,14.88888 -0.36556,17.48605 -0.72531,1.58428 -2.25171,3.36172 -3.63898,4.23747 -2.21442,1.3979 -6.18507,2.13595 -9.12365,1.69586 z m -93.439765,-2.58344 c -0.012,-1.41883 -0.32005,-7.34219 -0.68449,-13.16302 -1.10289,-17.61575 -1.07016,-16.77612 -0.659,-16.90624 0.20151,-0.0638 2.09483,-0.18792 4.20738,-0.27589 l 3.84102,-0.15996 0.74963,12.37521 c 0.4123,6.80637 0.86918,12.59899 1.01528,12.8725 0.24554,0.45965 0.49882,0.48364 3.34685,0.31709 1.69467,-0.0991 3.27539,-0.23711 3.51272,-0.30668 0.49273,-0.14442 0.75911,-1.20255 0.75911,-3.01534 v -1.25088 l 2.71198,-0.19225 c 1.49159,-0.10574 3.00964,-0.21257 3.37344,-0.2374 l 0.66146,-0.0452 0.30469,4.23333 c 0.46093,6.40428 0.46828,6.61698 0.24132,6.98421 -0.1592,0.25759 -0.83294,0.30605 -2.73954,0.19706 -1.39064,-0.0795 -3.07333,-0.0326 -3.73933,0.10412 -1.24032,0.25472 -12.96187,1.04899 -15.48055,1.04899 h -1.4001 l -0.0219,-2.57969 z m 27.04619,0.0931 c 0.14509,-0.77338 -1.13853,-24.28284 -1.57783,-28.89782 -0.13688,-1.43802 -0.0857,-1.69629 0.45855,-2.31319 l 0.61264,-0.6944 8.57728,-0.53109 c 4.7175,-0.29209 9.27165,-0.53108 10.12031,-0.53108 h 1.54303 v 1.94556 c 0,1.07006 0.0745,2.658 0.16548,3.52874 l 0.16547,1.58318 -5.66344,0.17039 c -3.1149,0.0937 -6.03293,0.24428 -6.48452,0.3346 l -0.82108,0.16421 0.13604,2.28822 c 0.1827,3.0731 0.31708,3.29625 1.87362,3.11133 0.67965,-0.0807 2.63471,-0.22395 4.34458,-0.31824 l 3.10885,-0.17144 0.009,1.2885 c 0.005,0.70867 0.11719,2.12193 0.24983,3.14058 0.17738,1.36215 0.15759,1.93421 -0.0748,2.16255 -0.18466,0.18144 -1.93219,0.41889 -4.20513,0.57138 -2.13903,0.14351 -4.01426,0.33824 -4.16719,0.43275 -0.29593,0.1829 -0.38421,4.34779 -0.11356,5.35737 0.0865,0.3226 0.35691,0.64992 0.60095,0.72737 0.86546,0.27469 7.76471,-0.32755 7.99976,-0.69831 0.1224,-0.19307 0.22438,-0.83915 0.2266,-1.43573 l 0.004,-1.0847 2.94756,-0.17902 c 1.62116,-0.0985 3.01022,-0.11637 3.0868,-0.0398 0.0766,0.0766 0.24914,2.23897 0.38347,4.80532 0.19955,3.81272 0.1794,4.70716 -0.11024,4.89074 -0.19495,0.12357 -1.36649,0.22774 -2.60342,0.2315 -1.23693,0.004 -5.99943,0.24151 -10.58333,0.52835 -4.58391,0.28684 -8.79411,0.52372 -9.35601,0.52639 -1.01909,0.005 -1.02121,0.003 -0.85297,-0.89419 z m 33.7569,-1.31415 c -1.41347,-0.41201 -2.73722,-1.07262 -3.86143,-1.92705 -0.63022,-0.47894 -1.15449,-0.62221 -2.27699,-0.62221 h -1.45826 l -0.18746,-4.09872 c -0.10311,-2.25429 -0.11826,-4.21068 -0.0337,-4.34753 0.0846,-0.13685 1.13404,-0.26059 2.33215,-0.27499 1.19811,-0.0144 2.53118,-0.0523 2.96238,-0.0842 0.75096,-0.0556 0.79851,0.007 1.12865,1.47896 0.45808,2.04283 0.942,2.71301 2.34628,3.2493 0.89423,0.34151 1.66774,0.4142 3.25216,0.3056 3.1033,-0.21271 4.24611,-1.01338 4.25699,-2.98254 0.0116,-2.09263 -0.87208,-2.68978 -5.68068,-3.83896 -5.45272,-1.30311 -7.78007,-2.38891 -9.24927,-4.31513 -1.3472,-1.76626 -1.9352,-4.74219 -1.45749,-7.37658 0.89742,-4.94897 4.27263,-7.62735 10.64091,-8.44405 3.77205,-0.48375 9.63341,0.47955 11.34346,1.86426 l 0.616295,0.49904 -0.569695,1.81351 c -0.31333,0.99744 -0.65011,2.55766 -0.7484,3.46716 -0.20478,1.89491 -0.42532,2.00921 -1.91873,0.99441 -1.75893,-1.19522 -4.17074,-1.84653 -6.85284,-1.85061 -2.0417,-0.003 -2.54322,0.0829 -3.15832,0.54157 -1.37347,1.02421 -1.48866,2.89123 -0.22929,3.7164 0.36254,0.23755 2.47401,0.8763 4.69215,1.41944 4.31991,1.0578 6.34411,1.87416 7.95402,3.20787 2.176325,1.80293 3.221875,4.56182 3.039465,8.02019 -0.23766,4.50572 -2.623685,7.52862 -7.246225,9.18036 -1.98011,0.70754 -7.76369,0.95036 -9.63615,0.40456 z m 51.860785,-5.12898 c 0.001,-1.12779 -0.36721,-8.09911 -0.819,-15.49183 -0.45179,-7.39271 -0.74722,-13.73701 -0.65651,-14.09842 0.0907,-0.36141 0.44036,-0.76183 0.77701,-0.88982 0.54286,-0.2064 16.81624,-1.33633 19.24326,-1.33615 l 0.95241,7e-5 0.19135,2.84428 c 0.10524,1.56434 0.21244,3.14192 0.23821,3.50572 l 0.0469,0.66146 -4.49792,0.17581 c -2.47386,0.0967 -5.37658,0.25713 -6.4505,0.35652 l -1.95259,0.18072 0.18493,2.55389 c 0.10171,1.40464 0.28401,2.65525 0.40511,2.77913 0.12111,0.12388 2.09617,0.0891 4.38903,-0.0774 2.29286,-0.16644 4.25394,-0.20826 4.35795,-0.0929 0.2961,0.32828 0.55465,6.37552 0.27985,6.54536 -0.13307,0.0822 -1.99601,0.26775 -4.13985,0.41224 -2.30777,0.15554 -4.05709,0.39483 -4.28815,0.58659 -0.31915,0.26487 -0.35657,0.78282 -0.20539,2.84247 0.10169,1.38521 0.31715,2.67794 0.47881,2.87274 0.23157,0.27902 1.02712,0.31873 3.74966,0.18717 4.86641,-0.23517 4.64635,-0.15272 4.64635,-1.74087 0,-0.83 0.12374,-1.36445 0.33073,-1.42847 0.1819,-0.0563 1.59219,-0.17415 3.13398,-0.26198 l 2.80325,-0.15968 0.21743,3.776 c 0.11959,2.07681 0.22735,4.3118 0.23946,4.96664 l 0.022,1.19063 -1.71979,0.0679 c -0.94588,0.0374 -5.7427,0.30526 -10.65958,0.59531 -4.91689,0.29005 -9.47103,0.52736 -10.12032,0.52736 h -1.18051 l 0.002,-2.05052 z m 35.11871,-0.21487 c -3.90266,-0.94571 -6.3539,-3.33211 -7.59215,-7.39131 -0.53351,-1.74896 -0.89826,-6.19119 -1.93359,-23.54851 l -0.0631,-1.05833 3.43958,-0.21506 c 1.89177,-0.11828 3.79475,-0.23735 4.22884,-0.26458 l 0.78926,-0.0495 0.59441,10.18646 c 0.65377,11.20392 0.94921,13.16486 2.16703,14.38346 0.92547,0.92607 2.56803,1.27824 4.3758,0.9382 2.55904,-0.48135 3.35558,-1.58207 3.52468,-4.87062 0.13382,-2.60242 -0.91531,-19.4657 -1.26889,-20.39569 -0.14076,-0.37022 -0.25592,-0.70759 -0.25592,-0.7497 0,-0.0421 1.45851,-0.15207 3.24114,-0.24433 1.78263,-0.0923 3.7876,-0.24198 4.45548,-0.3327 l 1.21433,-0.16496 0.17477,3.53536 c 0.0961,1.94445 0.35216,6.33333 0.56898,9.75306 0.66384,10.47019 0.52957,12.38618 -1.07456,15.3335 -1.43456,2.63575 -4.26435,4.43019 -8.16247,5.17603 -2.52191,0.48252 -6.38606,0.473 -8.4236,-0.0208 z m 24.29574,-1.75435 c -0.0726,-0.33576 -0.49776,-6.74219 -0.94476,-14.23651 -0.447,-7.49432 -0.88463,-14.59849 -0.9725,-15.78704 l -0.15976,-2.161 1.16183,-0.1419 c 0.63901,-0.0781 2.19985,-0.20087 3.46852,-0.27293 l 2.30668,-0.13101 0.60003,0.84642 c 0.33001,0.46553 2.79752,3.34673 5.48334,6.40267 2.68582,3.05594 5.35398,6.30685 5.92924,7.22425 0.57526,0.91741 1.14005,1.57225 1.25508,1.45521 0.11504,-0.11704 -0.0241,-3.83553 -0.30918,-8.26331 -0.28509,-4.42778 -0.42632,-8.13575 -0.31386,-8.23992 0.11247,-0.10417 1.81132,-0.23191 3.77523,-0.28386 l 3.57074,-0.0944 0.83555,13.62604 c 0.45955,7.49432 0.87678,14.81666 0.92718,16.27187 l 0.0916,2.64584 -2.77812,0.20428 c -1.52797,0.11235 -3.07389,0.23141 -3.43537,0.26458 -0.60201,0.0552 -0.67126,-0.0517 -0.82418,-1.27284 -0.0918,-0.73323 -0.34996,-1.68573 -0.57365,-2.11667 -0.22368,-0.43094 -2.76983,-3.44717 -5.6581,-6.70274 -2.88828,-3.25557 -5.63688,-6.58932 -6.108,-7.40833 l -0.85658,-1.48912 -0.002,1.5875 c -0.005,3.39178 0.83771,15.46494 1.21187,17.37231 0.13795,0.70324 0.13709,0.70362 -1.92825,0.86472 -1.13645,0.0886 -2.86596,0.22534 -3.84336,0.30378 -1.69436,0.13598 -1.78324,0.1142 -1.90913,-0.46784 z m 32.13296,-3.58703 c 0.002,-1.12779 -0.36656,-8.09821 -0.81949,-15.48984 -0.45293,-7.39162 -0.751,-13.72826 -0.66236,-14.08142 0.0886,-0.35316 0.38317,-0.76093 0.65453,-0.90615 0.44869,-0.24013 16.09805,-1.33874 19.07,-1.33874 h 1.25291 l 0.19135,2.84428 c 0.10525,1.56434 0.21244,3.14192 0.23822,3.50572 l 0.0469,0.66146 -5.29167,0.18746 c -2.91041,0.1031 -5.81229,0.26141 -6.44862,0.35181 l -1.15696,0.16436 0.18459,2.42631 c 0.10153,1.33447 0.32521,2.5716 0.49707,2.74916 0.24264,0.2507 1.22035,0.26013 4.37478,0.0422 2.23426,-0.15435 4.15351,-0.18057 4.265,-0.0583 0.11149,0.12231 0.28201,1.62319 0.37894,3.3353 0.13755,2.42973 0.10122,3.14027 -0.16553,3.23748 -0.18797,0.0685 -2.11799,0.24093 -4.28894,0.38316 -2.66879,0.17485 -4.02299,0.36884 -4.18129,0.59898 -0.31211,0.45375 0.02,5.26665 0.39457,5.71798 0.29033,0.34982 3.58376,0.29394 7.13858,-0.12114 l 1.25677,-0.14675 v -1.30639 c 0,-0.81339 0.12481,-1.34554 0.33073,-1.41013 0.1819,-0.0571 1.61065,-0.18035 3.175,-0.27397 l 2.84427,-0.17024 v 1.78962 c 0,0.98429 0.1328,3.14963 0.29511,4.81186 0.24453,2.5043 0.23319,3.06147 -0.0661,3.25111 -0.19869,0.12587 -1.31375,0.23194 -2.47792,0.23569 -1.16416,0.004 -5.86713,0.24151 -10.45104,0.52835 -4.5839,0.28684 -8.84039,0.52372 -9.45885,0.5264 l -1.12448,0.005 0.004,-2.05052 z m 34.5241,0.0333 c -1.85438,-0.46753 -3.21723,-1.0574 -4.23115,-1.83134 -0.9575,-0.73088 -1.43158,-0.90067 -2.69854,-0.96646 l -1.53697,-0.0798 -0.15718,-3.96875 c -0.0876,-2.21222 -0.0525,-4.08585 0.0794,-4.23333 0.1301,-0.14552 1.21286,-0.29806 2.40614,-0.33898 1.19327,-0.0409 2.52369,-0.10045 2.95648,-0.13229 0.74843,-0.0551 0.7959,0.004 0.97104,1.20436 0.40059,2.74596 1.79669,3.89704 4.72436,3.89523 3.17849,-0.002 4.86181,-0.83246 5.18559,-2.55838 0.40346,-2.1506 -1.15303,-3.32672 -5.71476,-4.31822 -4.90246,-1.06556 -6.99195,-1.98086 -8.66471,-3.7956 -1.69158,-1.83515 -2.01019,-2.77504 -2.03205,-5.99467 -0.0168,-2.47138 0.0581,-2.9423 0.67836,-4.26508 1.96934,-4.20002 5.93496,-6.13902 12.53194,-6.12755 3.3979,0.006 5.85597,0.44615 7.92721,1.41974 1.37184,0.64485 1.50336,1.17499 0.79005,3.18494 -0.22599,0.63676 -0.48231,1.91262 -0.56965,2.83523 -0.16725,1.76669 -0.5628,2.2499 -1.37054,1.67428 -2.87448,-2.04842 -7.5929,-2.99486 -10.04307,-2.0145 -1.0942,0.43782 -1.62879,1.24703 -1.62879,2.46552 0,1.31884 0.8882,1.79879 5.43909,2.93911 5.15842,1.29256 7.03313,2.17019 8.82595,4.13181 1.63734,1.79153 2.23954,3.55056 2.25562,6.5888 0.0185,3.47471 -1.29799,6.12321 -4.00791,8.06373 -2.24668,1.60881 -4.32272,2.17936 -8.27942,2.27538 -1.81901,0.0441 -3.54541,0.0202 -3.83646,-0.0532 z m 8.41927,-37.86192 -2.95782,-0.09 -1.19621,-3.70251 c -0.65792,-2.03638 -1.44196,-4.04761 -1.74231,-4.46941 -0.56029,-0.78686 -2.87424,-1.77631 -3.54877,-1.51747 -0.25467,0.0977 -0.38826,1.29082 -0.51144,4.56748 -0.0917,2.43936 -0.25958,4.52148 -0.37306,4.62693 -0.11348,0.10546 -1.6712,0.12812 -3.46162,0.0504 -2.72139,-0.11819 -3.23076,-0.20529 -3.10573,-0.53111 0.0823,-0.21435 0.33366,-5.76392 0.55868,-12.33237 0.22501,-6.56844 0.45969,-12.19335 0.52151,-12.49978 0.0948,-0.46986 0.36787,-0.58385 1.74324,-0.7276 2.48456,-0.25969 7.5647,-0.19983 9.49072,0.11183 5.90868,0.9561 8.83971,5.21769 7.25615,10.55011 -0.46784,1.57539 -2.46873,3.83512 -3.66072,4.13429 -0.84329,0.21165 -0.88638,0.78611 -0.0897,1.19591 1.25719,0.64669 2.07541,1.72895 2.87031,3.79658 0.99531,2.58901 1.1526,2.79499 2.13415,2.79499 h 0.77248 l -0.0773,2.05052 -0.0773,2.05052 -0.79375,0.0154 c -0.43656,0.008 -2.12476,-0.0252 -3.75157,-0.0746 z m -4.57214,-15.3445 c 1.00726,-1.12732 1.27826,-3.13093 0.60879,-4.50116 -0.63204,-1.29365 -1.88828,-1.92222 -3.84277,-1.92275 -1.79554,-5.3e-4 -1.71649,-0.17497 -1.77121,3.90934 -0.0384,2.86635 -0.0164,2.99375 0.55904,3.23867 0.32946,0.14022 1.30133,0.21742 2.15971,0.17156 1.35525,-0.0724 1.65622,-0.19032 2.28644,-0.89566 z m -29.49786,14.44654 c -3.37494,-0.44514 -5.90621,-2.02974 -7.16005,-4.48225 -1.09587,-2.14355 -1.17934,-3.41839 -0.86008,-13.13664 l 0.29734,-9.05115 3.26609,0.0256 c 1.79635,0.0141 3.31972,0.11243 3.38526,0.21848 0.0656,0.10606 -0.0212,4.08412 -0.1927,8.84014 -0.2685,7.44442 -0.25844,8.79857 0.0723,9.73474 0.54724,1.54887 1.46588,2.14037 3.36419,2.16616 1.85165,0.0252 2.69355,-0.43634 3.36067,-1.84219 0.49809,-1.04966 0.8462,-6.27114 0.9778,-14.66672 l 0.0643,-4.10104 3.32009,0.0859 c 1.82605,0.0472 3.38714,0.16629 3.46909,0.26458 0.14157,0.1698 0.0231,3.45455 -0.51226,14.20162 -0.25837,5.18679 -0.5878,6.63724 -1.92159,8.46075 -1.97443,2.69936 -6.05605,3.92491 -10.93047,3.28199 z m -26.80273,-1.17135 c -3.84406,-1.03512 -6.00065,-3.30366 -7.07999,-7.44753 -0.51564,-1.97966 -0.51696,-7.795 -0.002,-10.2239 0.78445,-3.70235 2.6499,-6.43625 5.25875,-7.70691 4.10225,-1.99804 10.46596,-1.27951 13.57933,1.53323 2.35052,2.12356 3.35558,5.33882 3.32215,10.62789 -0.0585,9.26412 -3.70141,13.66309 -11.26951,13.60863 -1.33074,-0.01 -3.04452,-0.18571 -3.80841,-0.39141 z m 5.7316,-5.60483 c 1.64469,-1.19236 2.57272,-4.92051 2.33138,-9.36582 -0.22614,-4.16552 -1.23368,-5.78682 -3.72451,-5.99338 -3.46087,-0.287 -4.74602,2.01053 -4.77724,8.54056 -0.01,2.05004 0.11816,3.88824 0.31674,4.55016 0.37217,1.24049 1.60207,2.62322 2.50534,2.81668 1.04621,0.22408 2.64386,-0.0375 3.34829,-0.5482 z m -33.2838,4.49331 -2.21817,-0.0897 0.16105,-2.70071 c 0.0886,-1.48539 0.29988,-7.16555 0.46955,-12.62258 0.22305,-7.17368 0.39965,-10.02075 0.63758,-10.27883 0.47527,-0.51552 9.49377,-0.57036 11.50253,-0.0699 3.218,0.80166 5.61222,2.53705 6.5297,4.73287 1.56054,3.73491 0.63116,8.85998 -2.04261,11.26392 -2.22413,1.99969 -6.25554,2.72097 -7.84023,1.40274 -0.41134,-0.34218 -1.01756,-0.76403 -1.34714,-0.93745 -0.89239,-0.46955 -0.98826,0.0218 -0.98826,5.06476 v 4.4312 l -1.32292,-0.0533 c -0.7276,-0.0293 -2.32109,-0.0936 -3.54108,-0.14299 z m 9.08826,-13.14319 c 1.24258,-0.51919 1.81877,-1.7292 1.8422,-3.8687 0.031,-2.83296 -1.2917,-4.07111 -4.17094,-3.90425 l -1.36636,0.0792 -0.13628,3.175 c -0.075,1.74625 -0.0469,3.44608 0.0623,3.77741 0.35228,1.06868 2.14277,1.42086 3.76908,0.74135 z m -33.7253,12.29778 c -2.3099,-0.13582 -2.50958,-0.19067 -2.46454,-0.67696 0.0269,-0.29104 0.17597,-4.27964 0.33117,-8.86354 0.15518,-4.58391 0.34253,-8.95945 0.41632,-9.72344 l 0.13417,-1.38906 h -3.30961 -3.3096 v -2.76251 c 0,-1.51938 0.0907,-2.81855 0.20148,-2.88703 0.11081,-0.0685 2.70042,-0.0189 5.75469,0.11015 3.05426,0.12906 7.48797,0.25175 9.85269,0.27263 l 4.29948,0.038 v 2.91645 2.91646 l -3.10886,-0.17271 c -1.70987,-0.095 -3.25405,-0.0773 -3.43152,0.0393 -0.34086,0.22395 -0.85745,10.41816 -0.86442,17.05792 l -0.004,3.37344 -0.99219,-0.0506 c -0.5457,-0.0279 -2.12328,-0.11715 -3.50572,-0.19844 z m -22.53519,-0.65602 c -3.88138,-0.15704 -7.11219,-0.34505 -7.17958,-0.41781 -0.0674,-0.0728 -0.0279,-2.27542 0.0878,-4.8948 0.11566,-2.61937 0.28239,-7.08422 0.37052,-9.92187 0.25577,-8.23625 0.43454,-10.53319 0.84637,-10.87498 0.36811,-0.3055 10.99358,-0.16296 14.85884,0.19933 l 1.66227,0.15581 -0.0748,2.81252 -0.0748,2.81253 -0.66146,-0.0688 c -0.3638,-0.0378 -2.71528,-0.14337 -5.22552,-0.23455 l -4.56406,-0.16577 v 2.02703 c 0,1.93244 0.0317,2.03908 0.67868,2.28507 0.37328,0.14192 1.96788,0.25804 3.54357,0.25804 2.05422,0 2.89741,0.0936 2.97983,0.33073 0.0632,0.1819 0.0462,1.40229 -0.0378,2.71198 l -0.15278,2.38125 h -3.30729 c -1.81901,0 -3.45612,0.0963 -3.63803,0.21405 -0.21864,0.14151 -0.33072,0.92295 -0.33072,2.30579 0,2.60984 0.0442,2.63953 3.9281,2.63953 h 2.90455 l 0.18043,-1.06793 0.18042,-1.06793 2.42252,0.0757 2.42252,0.0757 -0.0932,3.70416 c -0.0513,2.0373 -0.1476,3.79347 -0.21406,3.90261 -0.1428,0.23451 -2.05922,0.20496 -11.51228,-0.1775 z m -32.7105,-1.07806 c -1.8175,-0.51088 -2.26846,-0.76424 -3.685965,-2.07085 -2.4181,-2.22892 -3.3675,-5.1696 -3.34661,-10.36578 0.0292,-7.26103 1.89192,-11.38206 5.988825,-13.24949 1.48685,-0.67773 1.93218,-0.75274 4.4311,-0.74629 3.10712,0.008 4.50672,0.39649 6.13605,1.70315 0.73945,0.59301 1.25356,0.78424 2.11666,0.78731 0.627,0.002 1.27295,0.0915 1.43544,0.19843 0.20379,0.13408 0.25427,1.24095 0.16272,3.56783 l -0.13273,3.37344 h -2.44298 -2.44298 l -0.14331,-1.06842 c -0.29024,-2.16391 -1.86181,-3.34363 -4.1158,-3.08957 -1.60482,0.18088 -2.44631,0.89634 -3.20734,2.72698 -0.59258,1.42545 -0.65091,1.92492 -0.66145,5.66434 -0.0131,4.65624 0.28632,5.70422 1.94578,6.80953 1.66168,1.10678 4.7326,0.6008 5.5429,-0.91327 0.14189,-0.26512 0.34134,-0.92634 0.44321,-1.46936 l 0.18522,-0.98732 h 2.46848 c 1.35767,0 2.51344,0.0893 2.56839,0.19844 0.0549,0.10914 0.0494,1.65695 -0.0123,3.43958 l -0.11216,3.24115 h -1.38633 c -1.02269,0 -1.50487,0.13097 -1.83821,0.49931 -0.24853,0.27462 -1.18496,0.8283 -2.08095,1.2304 -2.02615,0.90928 -5.58852,1.14651 -7.81571,0.52046 z M 83.156385,149.392 c -3.4925,-0.12518 -6.86754,-0.29192 -7.50009,-0.37053 -1.02508,-0.12739 -1.13327,-0.20546 -0.99528,-0.71818 0.0851,-0.3164 0.33997,-5.81401 0.56627,-12.21693 0.22629,-6.40292 0.46762,-11.90774 0.53628,-12.23295 0.0765,-0.36241 0.39241,-0.65844 0.8161,-0.76477 0.74664,-0.1874 15.86075,0.23315 16.07488,0.44727 0.0712,0.0712 0.0453,1.37644 -0.0577,2.90041 -0.15278,2.26094 -0.25962,2.75245 -0.58052,2.67076 -0.2163,-0.0551 -2.50664,-0.16039 -5.08963,-0.23407 l -4.69636,-0.13397 v 2.11634 2.11635 l 1.22755,0.16825 c 0.67516,0.0925 2.21595,0.16826 3.42397,0.16826 1.20803,0 2.27014,0.11929 2.36025,0.26508 0.0901,0.1458 0.0798,1.41028 -0.023,2.80995 l -0.1868,2.54486 -3.37157,-0.18647 c -2.43276,-0.13455 -3.42389,-0.1018 -3.55948,0.11758 -0.10335,0.16723 -0.25244,1.24542 -0.3313,2.39598 l -0.14338,2.09193 0.73845,0.28076 c 0.40615,0.15441 2.0005,0.24714 3.54301,0.20606 l 2.80456,-0.0747 0.13229,-1.0328 0.13229,-1.03279 2.37705,0.0585 c 1.30738,0.0322 2.40998,0.0914 2.45021,0.13161 0.0402,0.0402 -0.006,1.81814 -0.10303,3.9509 l -0.1762,3.87774 -2.00943,-0.0464 c -1.10519,-0.0255 -4.86693,-0.14882 -8.35943,-0.274 z m -24.06138,-0.9358 c -3.03748,-0.0898 -3.46026,-0.23903 -3.9052,-1.37868 -0.39837,-1.02036 -6.29696,-24.14745 -6.29696,-24.68902 0,-0.43371 0.28864,-0.46655 3.50573,-0.3988 l 3.50573,0.0738 0.29474,1.45521 c 1.42542,7.03754 3.58384,17.42009 3.69903,17.79322 0.0786,0.25466 0.31123,0.46302 0.51693,0.46302 0.39538,0 0.41676,-0.0651 1.04121,-3.16954 0.4858,-2.41518 4.03262,-15.25013 4.40811,-15.95174 0.18689,-0.3492 0.44902,-0.45938 0.85218,-0.35819 0.32025,0.0804 1.74322,0.22774 3.16217,0.32749 1.41894,0.0997 2.63462,0.26987 2.70149,0.37808 0.0669,0.1082 -0.0652,0.71542 -0.29338,1.34938 -0.22823,0.63395 -1.99415,6.05554 -3.92425,12.04797 -1.9301,5.99243 -3.70983,11.20141 -3.95496,11.57552 -0.36197,0.55244 -0.6309,0.66964 -1.43177,0.62401 -0.54235,-0.0309 -2.28871,-0.0947 -3.8808,-0.14176 z m -18.0243,-3.91404 c -0.42266,-1.97887 -0.85203,-3.73315 -0.95415,-3.89838 -0.13755,-0.22256 -0.52682,-0.213 -1.50177,0.0369 -0.85692,0.21962 -1.9537,0.27448 -3.14361,0.15723 -1.43683,-0.14159 -1.91084,-0.0968 -2.21726,0.20966 -0.21435,0.21435 -0.72347,1.62658 -1.13138,3.13827 -0.4079,1.5117 -0.78962,2.906 -0.84826,3.09845 -0.0848,0.2784 -0.74207,0.31142 -3.21642,0.16161 -1.71039,-0.10357 -3.18384,-0.30288 -3.27432,-0.44292 -0.0905,-0.14005 -0.0786,-0.62949 0.0263,-1.08765 0.19592,-0.85521 7.27187,-22.81673 7.7188,-23.95669 0.24431,-0.62315 0.29012,-0.63113 2.6585,-0.46302 1.32544,0.0941 3.39945,0.17106 4.6089,0.17106 1.83801,0 2.2404,0.0774 2.45117,0.47118 0.4056,0.75787 6.11194,23.64645 6.18357,24.80278 l 0.0652,1.05208 -3.32839,0.0737 -3.3284,0.0737 z m -1.96745,-8.96614 c 0,-0.33235 -1.90472,-8.75853 -2.00179,-8.8556 -0.2304,-0.23041 -0.3772,0.17847 -0.75648,2.1071 -0.21279,1.08199 -0.68408,2.9725 -1.04731,4.20114 -0.36324,1.22864 -0.60105,2.32997 -0.52847,2.4474 0.13281,0.2149 4.33405,0.3118 4.33405,0.1 z M 177.94337,118.04468 c -0.59898,-0.15653 -0.58517,-0.33999 0.21419,-2.8432 0.39106,-1.22464 0.63773,-2.54769 0.59193,-3.175 l -0.0785,-1.07545 h 1.5875 1.5875 l -0.0267,1.4552 c -0.0267,1.45587 -0.48136,2.63152 -1.86755,4.82865 -0.60084,0.95234 -0.93987,1.08904 -2.00841,0.8098 z m -143.999485,-3.71413 -5.02708,-0.0828 0.0731,-7.6015 c 0.0402,-4.18083 0.12575,-7.750327 0.19013,-7.932237 0.0881,-0.24889 1.36295,-0.33072 5.15244,-0.33072 h 5.03539 v 1.719787 1.71979 h -3.1895 -3.1895 l 0.0806,1.25677 0.0806,1.25677 2.19516,0.077 2.19516,0.077 -0.0785,1.64275 -0.0785,1.64274 -2.11667,0.1323 -2.11667,0.13229 -0.0823,1.14403 c -0.11517,1.60064 0.22679,1.89868 2.17846,1.89868 1.69163,0 2.26948,-0.28295 2.26948,-1.11125 0,-0.40128 0.23065,-0.47625 1.46514,-0.47625 h 1.46514 l -0.0761,2.44739 c -0.0749,2.4104 -0.0861,2.44757 -0.73754,2.45875 -0.3638,0.006 -2.92364,-0.0259 -5.68854,-0.0714 z m 18.54516,-0.11093 c -0.0618,-0.197 -0.18076,-0.67203 -0.26428,-1.05562 -0.0835,-0.3836 -1.23435,-2.08549 -2.55738,-3.78197 -1.32304,-1.69649 -2.5736,-3.4067 -2.77903,-3.80047 -0.33452,-0.64124 -0.37367,-0.22586 -0.37513,3.9804 l -0.002,4.69636 h -1.85209 -1.85208 l -0.0397,-7.54063 c -0.0218,-4.14734 -0.0516,-7.689447 -0.0662,-7.871347 -0.0182,-0.22792 0.50816,-0.34904 1.69334,-0.38964 l 1.71979,-0.0589 2.51337,3.313847 c 1.38236,1.82261 2.69204,3.63506 2.91042,4.02766 0.36888,0.66318 0.40222,0.4276 0.47008,-3.32109 l 0.073,-4.034887 h 1.84519 1.84519 v 7.937497 7.9375 h -1.16898 c -0.64294,0 -1.35632,0.0719 -1.58527,0.15974 -0.23545,0.0904 -0.46512,0.004 -0.52871,-0.19844 z m 14.29167,-0.59832 c -1.00293,-0.52277 -2.04471,-0.95048 -2.31507,-0.95048 -0.46681,0 -0.49155,-0.3576 -0.49155,-7.10493 v -7.104917 l 2.02429,-0.17112 c 4.39712,-0.37169 6.86618,-0.0285 8.38399,1.16544 1.59315,1.253167 1.57092,3.980897 -0.0448,5.492827 -0.70012,0.65517 -0.86634,0.94654 -0.59616,1.04498 0.20606,0.0751 0.79253,0.51947 1.30326,0.98752 0.82239,0.75366 0.94081,1.02942 1.03525,2.41071 0.0867,1.2684 -0.0104,1.77824 -0.52,2.72983 -0.87125,1.62687 -2.13497,2.24306 -4.83903,2.35948 -1.99953,0.0861 -2.21765,0.0385 -3.94021,-0.85934 z m 4.51291,-2.68971 c 0.56317,-0.56317 0.65424,-0.84515 0.52675,-1.63081 -0.0848,-0.52245 -0.27718,-1.07294 -0.42754,-1.22331 -0.28691,-0.2869 -3.10923,-0.6863 -3.325,-0.47053 -0.2699,0.2699 -0.10596,2.87006 0.20574,3.26308 0.73862,0.93131 2.1221,0.95951 3.02005,0.0616 z m -0.24193,-6.91198 c 0.80389,-1.0835 0.21091,-2.6251 -1.10469,-2.87191 -1.66113,-0.31163 -2.00416,-0.0194 -2.00416,1.70727 0,0.83906 0.0893,1.61631 0.19844,1.72722 0.335,0.34042 2.55946,-0.0896 2.91041,-0.56258 z m 26.9875,10.31095 -4.96093,-0.0839 v -7.51315 c 0,-4.13223 0.0723,-7.701477 0.1606,-7.931657 0.13875,-0.36159 0.85396,-0.41851 5.25859,-0.41851 h 5.097995 v 1.719787 1.71979 h -3.14192 -3.141935 v 1.31222 1.31221 l 2.18281,0.0769 2.182815,0.0768 v 1.5875 1.5875 l -2.195695,0.0771 -2.19569,0.077 0.079,1.51045 0.079,1.51044 h 1.97245 c 1.885915,0 1.979295,-0.029 2.128595,-0.66145 0.14297,-0.60564 0.27796,-0.66146 1.59943,-0.66146 h 1.44328 v 2.38125 2.38125 l -0.79375,0.0119 c -0.43656,0.007 -3.02617,-0.0258 -5.754695,-0.072 z m 20.751955,0.002 c -1.68594,-0.1236 -1.80511,0.94764 0.96486,-8.67321 l 2.05677,-7.143747 2.95307,-0.0747 2.95307,-0.0747 0.40328,1.39764 c 0.2218,0.768697 1.17875,4.075587 2.12655,7.348637 0.9478,3.27306 1.72327,6.21985 1.72327,6.54844 0,0.53391 -0.14065,0.6027 -1.32292,0.64704 -2.99493,0.11231 -2.64692,0.34256 -3.27418,-2.16628 -0.48914,-1.95641 -0.63111,-2.23773 -1.09145,-2.16264 -0.29104,0.0475 -1.27243,0.15058 -2.18088,0.22913 -1.83006,0.15825 -1.75546,0.0605 -2.38495,3.12414 -0.24096,1.1727 -0.29989,1.19285 -2.92649,1.00029 z m 7.08893,-7.68113 c -0.0126,-0.89128 -1.2499,-5.22171 -1.37969,-4.82865 -0.37506,1.13579 -1.16608,5.03244 -1.04597,5.15255 0.0765,0.0765 0.65506,0.13912 1.28565,0.13912 0.91803,0 1.14523,-0.0923 1.14001,-0.46302 z m 10.72215,7.3846 c -2.1667,-1.02725 -3.29438,-3.13013 -3.50712,-6.53996 -0.28193,-4.51906 0.91367,-7.548937 3.44365,-8.726817 2.09781,-0.97668 5.24971,-0.82137 6.57909,0.32419 0.23661,0.20389 0.86169,0.44073 1.38906,0.52632 l 0.95886,0.15559 v 2.095257 2.09525 l -1.52136,-0.0794 c -1.44331,-0.0753 -1.52567,-0.11697 -1.60563,-0.81273 -0.11557,-1.00567 -1.06048,-1.56748 -2.46516,-1.4657 -0.94645,0.0686 -1.2355,0.22838 -1.72135,0.95168 -1.17491,1.74912 -1.04327,6.57078 0.21598,7.9112 0.41008,0.43651 0.8707,0.61224 1.60478,0.61224 1.45288,0 2.05315,-0.3895 2.05315,-1.33222 0,-0.71763 -0.0776,-0.78444 -0.91086,-0.78444 h -0.91086 l 0.0961,-1.38907 0.096,-1.38906 h 2.79919 c 1.53955,0 2.79919,0.0893 2.79919,0.19844 0,0.10914 0,1.56765 0,3.24114 v 3.04271 h -0.64388 c -0.35414,0 -1.26618,0.38696 -2.02677,0.8599 -1.21858,0.75773 -1.63719,0.86864 -3.52331,0.93354 -1.66519,0.0573 -2.3754,-0.0378 -3.19875,-0.42811 z m 21.94837,0.0899 c -0.0418,-0.14553 -0.14068,-0.56364 -0.21966,-0.92916 -0.079,-0.36551 -1.30932,-2.165 -2.73408,-3.99886 -1.42476,-1.83386 -2.73829,-3.55886 -2.91896,-3.83334 -0.26688,-0.40544 -0.31651,0.38196 -0.26459,4.19756 l 0.0639,4.69661 -1.91823,-2.6e-4 -1.91823,-2.6e-4 v -7.9375 -7.937497 l 1.78594,0.0193 1.78594,0.0193 1.98437,2.641367 c 1.09141,1.45276 2.4011,3.24963 2.91043,3.99306 l 0.92604,1.35168 0.073,-4.01233 0.073,-4.012337 h 1.84519 1.8452 v 7.913997 7.914 l -1.62165,0.0897 c -0.93329,0.0516 -1.65392,-0.0226 -1.69769,-0.17493 z m 11.19069,0.20453 -4.96094,-0.0839 v -7.41989 c 0,-4.60874 0.10377,-7.613777 0.27389,-7.931657 0.25601,-0.47836 0.60153,-0.51178 5.29167,-0.51178 h 5.01778 v 1.719797 1.71979 h -3.175 -3.175 v 1.32291 1.32292 h 2.26158 2.26158 l -0.0788,1.65365 -0.0788,1.65364 -2.18281,0.0768 -2.18281,0.0768 v 1.43947 c 0,1.66923 0.21287,1.80291 2.64922,1.66362 1.27807,-0.0731 1.44669,-0.15219 1.58421,-0.74324 0.13919,-0.59828 0.29913,-0.66906 1.6745,-0.74111 l 1.52061,-0.0796 -0.0763,2.46091 -0.0763,2.4609 -0.79375,0.0119 c -0.43657,0.007 -3.02617,-0.0258 -5.75469,-0.072 z m 23.61678,-0.15572 c -0.50783,-0.16172 -1.42268,-0.79339 -2.033,-1.40371 -1.42557,-1.42558 -1.93847,-3.09724 -1.93847,-6.31802 0,-3.97492 0.9855,-6.30794 3.18524,-7.540627 1.03032,-0.57736 1.50259,-0.66145 3.71468,-0.66145 2.36037,0 2.62337,0.0551 3.8324,0.80256 0.99127,0.61285 1.48544,1.168847 2.09061,2.352147 0.69493,1.35883 0.80482,1.88281 0.89269,4.25639 0.16547,4.47006 -0.81716,6.8356 -3.37844,8.13317 -1.21403,0.61503 -1.74613,0.72342 -3.43931,0.70059 -1.10169,-0.0149 -2.41857,-0.15933 -2.9264,-0.32105 z m 4.55789,-3.64653 c 0.75024,-0.90344 1.06684,-2.5914 0.92389,-4.92566 -0.20209,-3.29999 -1.2659,-4.61301 -3.29729,-4.06974 -1.31363,0.35132 -1.79033,1.62617 -1.79033,4.78791 0,3.05988 0.32384,4.10483 1.45521,4.69545 0.85305,0.44534 2.12357,0.21644 2.70852,-0.48796 z m 17.29185,3.69131 c -0.0618,-0.197 -0.18175,-0.67596 -0.26648,-1.06436 -0.0847,-0.38841 -1.28013,-2.15356 -2.65644,-3.92256 -1.37631,-1.769 -2.57565,-3.44724 -2.66521,-3.72943 -0.0896,-0.28218 -0.27592,-0.44317 -0.41412,-0.35775 -0.149,0.0921 -0.2115,1.97837 -0.15354,4.63405 l 0.0977,4.47875 h -1.81179 -1.81178 l -0.0397,-7.54063 c -0.0218,-4.14734 -0.0516,-7.689447 -0.0661,-7.871347 -0.0182,-0.22792 0.50816,-0.34904 1.69334,-0.38964 l 1.71979,-0.0589 2.51337,3.313847 c 1.38236,1.82261 2.69205,3.63506 2.91042,4.02765 0.36888,0.66319 0.40222,0.42761 0.47008,-3.32108 l 0.073,-4.034897 h 1.8452 1.84519 v 7.937497 7.9375 h -1.16899 c -0.64294,0 -1.35631,0.0719 -1.58527,0.15975 -0.23545,0.0904 -0.46512,0.004 -0.5287,-0.19844 z m 11.55119,0.11356 c -0.85385,-0.063 -1.38498,-0.22462 -1.37846,-0.41942 0.006,-0.1743 0.99319,-3.71018 2.19412,-7.85753 l 2.1835,-7.540617 2.79348,-0.0747 c 2.02987,-0.0543 2.86771,0.018 3.06502,0.26458 0.40211,0.50242 4.54833,15.126717 4.34612,15.329387 -0.0952,0.0954 -1.04955,0.21446 -2.12083,0.26458 l -1.94778,0.0911 -0.56576,-2.24895 c -0.49195,-1.95556 -0.6348,-2.2377 -1.09493,-2.16265 -0.29104,0.0475 -1.27244,0.15058 -2.18088,0.22914 -1.83007,0.15824 -1.75547,0.0605 -2.38495,3.12413 -0.24075,1.17169 -0.30327,1.1932 -2.90865,1.00091 z m 7.07943,-7.54934 c 0.001,-0.1819 -0.25179,-1.43206 -0.56178,-2.77813 -0.5504,-2.39001 -1.023,-3.17752 -1.03208,-1.71979 -0.002,0.40018 -0.22712,1.58447 -0.49916,2.63175 -0.27204,1.04727 -0.42875,1.97001 -0.34824,2.05052 0.30727,0.30727 2.43943,0.14627 2.44126,-0.18435 z m 10.7138,7.2523 c -2.16669,-1.02725 -3.29438,-3.13013 -3.50711,-6.53995 -0.28194,-4.51907 0.91366,-7.548937 3.44364,-8.726827 2.19648,-1.02261 5.12286,-0.82836 6.77988,0.45005 0.34704,0.26775 0.97212,0.48682 1.38906,0.48682 h 0.75807 v 2.129867 2.12988 l -1.50563,-0.0794 c -1.45062,-0.0764 -1.51367,-0.11055 -1.72577,-0.93314 -0.27346,-1.06055 -0.96371,-1.44823 -2.39247,-1.34374 -0.91098,0.0666 -1.20857,0.23396 -1.68962,0.95012 -0.74249,1.10536 -1.03259,3.65628 -0.65072,5.72197 0.41255,2.23171 0.91076,2.79108 2.4915,2.79743 1.43075,0.006 2.03313,-0.38777 2.03313,-1.32818 0,-0.71683 -0.0781,-0.78444 -0.90614,-0.78444 h -0.90614 l 0.0702,-1.38906 0.0703,-1.38906 h 2.82027 c 1.55114,0 2.82027,0.0893 2.82027,0.19843 0,0.10914 0,1.56766 0,3.24115 v 3.04271 h -0.64388 c -0.35413,0 -1.26618,0.38695 -2.02677,0.85989 -1.21858,0.75773 -1.63719,0.86865 -3.52331,0.93355 -1.66519,0.0573 -2.3754,-0.0378 -3.19875,-0.42812 z m 12.16989,0.18283 c -0.0768,-0.20018 -0.10804,-3.81533 -0.0694,-8.03366 l 0.0703,-7.669697 2.05052,-0.0773 2.05052,-0.0773 v 7.948627 7.94863 l -1.38906,0.004 c -0.76398,0.002 -1.65551,0.075 -1.98116,0.16231 -0.3777,0.10123 -0.64267,0.0269 -0.73176,-0.20527 z M 78.261595,106.44481 c 0,-7.196917 0.0365,-7.827627 0.46302,-7.992367 0.25466,-0.0984 2.07036,-0.18393 4.0349,-0.19013 3.16504,-0.01 3.69241,0.0536 4.6302,0.55828 1.83554,0.98783 2.78595,2.506817 2.77232,4.430857 -0.009,1.31651 -0.88809,2.92459 -1.96034,3.58727 l -0.9703,0.59968 1.00521,0.86043 c 0.55286,0.47323 1.16915,1.3231 1.36953,1.8886 0.46689,1.31757 0.7725,1.68964 1.38786,1.68964 0.41298,0 0.49677,0.20248 0.49677,1.20055 v 1.20056 l -2.42353,-0.0761 -2.42353,-0.0761 -0.58193,-1.72704 c -0.82221,-2.44015 -1.35404,-3.36886 -2.04259,-3.56687 -1.65846,-0.47695 -1.52426,-0.69689 -1.52426,2.49795 v 2.92825 h -2.11666 -2.11667 z m 6.97578,-1.20153 c 0.56558,-0.44489 0.69714,-0.76942 0.69714,-1.71979 0,-1.65155 -0.67644,-2.28401 -2.32896,-2.17754 l -1.24276,0.0801 0.0925,1.98438 c 0.0516,1.10684 0.22709,2.07033 0.3968,2.17876 0.57132,0.36501 1.6872,0.20319 2.38524,-0.34588 z m 24.562195,2.79708 0.0797,-6.21797 -2.05052,2.6e-4 -2.05052,2.5e-4 v -1.71979 -1.719787 l 5.68854,-0.0441 c 3.1287,-0.0243 5.8969,-0.054 6.15156,-0.0662 0.39575,-0.0188 0.46302,0.22783 0.46302,1.69774 v 1.719787 l -2.06801,0.0776 -2.06801,0.0776 0.0836,6.20652 0.0836,6.20651 -2.1964,-2.5e-4 -2.19641,-2.5e-4 z m 157.05732,0.0119 0.0797,-6.20659 -2.03838,-0.0775 -2.03838,-0.0775 -0.0454,-1.54745 c -0.0267,-0.907587 0.0721,-1.586797 0.23892,-1.642617 0.15641,-0.0523 2.93362,-0.1299 6.17157,-0.17235 l 5.88717,-0.0772 -1.9e-4,1.774807 -2.1e-4,1.77481 -2.05052,0.0773 -2.05052,0.0773 v 6.15164 6.15164 l -2.11667,1.8e-4 -2.11666,1.7e-4 z M 25.080745,89.718213 c 2.2e-4,-0.25466 0.35385,-1.7727 0.78583,-3.37343 2.18463,-8.09517 6.09195,-15.03757 11.84836,-21.05177 4.49406,-4.69531 8.44322,-7.61505 13.95603,-10.31814 15.09488,-7.40144 32.85299,-6.58414 47.15609,2.17032 6.042525,3.69844 11.864775,9.41601 15.798015,15.51398 2.7285,4.23019 5.59001,11.05065 6.49106,15.47154 l 0.31007,1.52136 h 78.95937 c 52.46319,0 78.95937,0.0888 78.95937,0.26458 0,0.17602 -42.55382,0.26459 -127.1323,0.26459 -120.902145,0 -127.132275,-0.0227 -127.131895,-0.46303 z m 41.33087,-0.7276 c -0.12363,-0.86061 -2.31546,-2.68418 -4.6015,-3.82838 -2.18964,-1.09595 -3.04866,-1.26893 -3.93797,-0.79298 -0.65764,0.35196 -1.5092,2.02523 -1.72845,3.39632 -0.31356,1.96089 -0.4694,1.90663 5.24461,1.82609 4.92811,-0.0695 5.09678,-0.0897 5.02331,-0.60105 z m 12.58204,0.3441 c -0.14269,-0.42808 -3.37567,-2.06455 -4.03935,-2.04464 -0.72792,0.0218 -3.91676,1.62404 -4.04279,2.03127 -0.0789,0.25486 0.84847,0.33073 4.04279,0.33073 3.10538,0 4.1186,-0.0796 4.03935,-0.31736 z m 14.98278,-0.32727 c 0.2999,-1.19491 -0.36701,-3.37505 -1.32572,-4.33376 -1.03962,-1.03962 -1.57249,-1.01195 -4.2634,0.22135 -2.26012,1.03586 -3.9626,2.25181 -4.43683,3.16887 -0.83338,1.61156 -0.9031,1.58817 4.73347,1.58817 h 5.13069 z m -41.42688,-0.64336 c 0.45483,-0.28839 1.63495,-3.54555 1.63495,-4.51248 0,-1.20082 -0.59778,-1.47745 -3.15566,-1.46029 -2.48156,0.0166 -4.30918,0.63292 -4.47079,1.50755 -0.11841,0.64082 2.80719,3.51676 4.23811,4.16616 1.31225,0.59554 1.2914,0.59199 1.75339,0.29906 z m 47.12163,-0.28846 c 1.085535,-0.5538 3.990415,-3.57564 3.990415,-4.15108 0,-0.79568 -1.36537,-1.26693 -3.974315,-1.37172 -3.89191,-0.15632 -4.21928,0.21439 -3.187,3.60896 0.79455,2.6128 1.25549,2.89101 3.1709,1.91384 z m -29.54553,-2.95158 c 0.67239,-0.80986 0.56608,-1.94353 -0.4066,-4.33552 -1.10081,-2.7071 -2.38025,-4.57251 -3.29336,-4.80168 -1.46161,-0.36684 -5.10109,2.26652 -5.09487,3.68641 0.005,1.20961 3.4365,4.6949 5.68598,5.7756 1.2548,0.60283 2.44162,0.47884 3.10885,-0.32481 z m 13.8732,-0.48528 c 2.02267,-1.35068 4.58149,-4.02683 4.58149,-4.79155 0,-2.18512 -3.9485,-4.73109 -5.61727,-3.62199 -1.20473,0.80069 -3.64315,5.78716 -3.64315,7.45008 0,0.33755 0.24677,0.92745 0.54837,1.31088 0.84163,1.06996 2.17611,0.95772 4.13056,-0.34742 z m -7.68405,-1.27643 c 0.82184,-0.6629 1.31721,-1.79446 1.79215,-4.0938 0.4806,-2.32671 0.53907,-4.24398 0.15153,-4.96811 -0.73074,-1.3654 -5.87762,-1.3654 -6.60836,0 -0.54502,1.01838 -0.11097,4.79414 0.83711,7.28185 0.76463,2.00636 2.52945,2.82711 3.82757,1.78006 z m 15.26199,-7.99104 c 0.92328,-1.09726 1.32895,-2.47996 1.35062,-4.60351 0.0254,-2.49356 -0.30756,-2.69179 -2.61246,-1.5552 -2.15211,1.06126 -3.85128,2.55743 -3.85128,3.39118 0,0.40535 0.34057,0.87107 0.99219,1.35677 0.5457,0.40676 1.05172,0.80388 1.12448,0.88249 0.44502,0.48076 1.71178,1.3153 1.99654,1.3153 0.18572,0 0.63568,-0.35417 0.99991,-0.78703 z m -29.58993,-0.87602 c 1.01707,-0.76321 1.88595,-1.57833 1.93083,-1.81139 0.19443,-1.00957 -2.25582,-2.96256 -4.8078,-3.83211 -1.03065,-0.35118 -1.30383,-0.3626 -1.65722,-0.0693 -0.75826,0.6293 -0.0581,4.72336 1.11363,6.51163 0.59613,0.9098 1.39094,0.72419 3.42056,-0.79882 z m 15.8855,-4.60011 c 0.63355,-0.63355 0.34138,-2.16914 -0.86813,-4.5627 -1.51741,-3.00285 -2.15068,-3.12284 -3.53451,-0.66971 -0.98948,1.75408 -1.61111,4.17803 -1.28884,5.02565 0.23795,0.62588 0.3362,0.64908 2.74797,0.64908 1.98472,0 2.59253,-0.0913 2.94351,-0.44232 z"
       id="path847" />
  </g>
</svg>
